<svg width="16" height="17" viewBox="0 0 16 17" fill="none" xmlns="http://www.w3.org/2000/svg">
<g clip-path="url(#clip0_3_80)">
<path d="M14.6591 10.2991C14.8906 10.1199 15.0779 9.89015 15.2068 9.62736C15.3358 9.36458 15.4028 9.07577 15.4028 8.78307C15.4028 8.49037 15.3358 8.20155 15.2068 7.93877C15.0779 7.67599 14.8906 7.44621 14.6591 7.26707C11.6616 4.9477 8.31453 3.11955 4.74308 1.85107L4.09008 1.61907C2.84208 1.17607 1.52308 2.02007 1.35408 3.30907C0.881972 6.94313 0.881972 10.623 1.35408 14.2571C1.52408 15.5461 2.84208 16.3901 4.09008 15.9471L4.74308 15.7151C8.31453 14.4466 11.6616 12.6184 14.6591 10.2991Z" fill="#414141"/>
</g>
<defs>
<clipPath id="clip0_3_80">
<rect width="16" height="16" fill="white" transform="translate(0 0.5)"/>
</clipPath>
</defs>
</svg>
