<svg width="17" height="16" viewBox="0 0 17 16" fill="none" xmlns="http://www.w3.org/2000/svg">
<g clip-path="url(#clip0_3_268)">
<path d="M7.77999 1.91205C7.85335 1.78615 7.95845 1.6817 8.08478 1.6091C8.21112 1.5365 8.35428 1.49829 8.49999 1.49829C8.6457 1.49829 8.78886 1.5365 8.9152 1.6091C9.04154 1.6817 9.14663 1.78615 9.21999 1.91205L11.0833 5.11071L14.702 5.89471C14.8443 5.92565 14.9761 5.99335 15.0841 6.09107C15.1921 6.18879 15.2726 6.31312 15.3176 6.45166C15.3626 6.59021 15.3705 6.73812 15.3405 6.88066C15.3105 7.0232 15.2437 7.15539 15.1467 7.26405L12.68 10.0247L13.0533 13.708C13.0681 13.8531 13.0445 13.9994 12.9849 14.1325C12.9254 14.2656 12.832 14.3807 12.7141 14.4664C12.5961 14.5521 12.4578 14.6054 12.3128 14.6209C12.1679 14.6363 12.0214 14.6135 11.888 14.5547L8.49999 13.0614L5.11199 14.5547C4.9786 14.6135 4.83212 14.6363 4.68716 14.6209C4.5422 14.6054 4.40385 14.5521 4.2859 14.4664C4.16796 14.3807 4.07457 14.2656 4.01504 14.1325C3.95551 13.9994 3.93193 13.8531 3.94666 13.708L4.31999 10.0247L1.85332 7.26471C1.75614 7.15607 1.68916 7.02382 1.65907 6.88119C1.62897 6.73856 1.63682 6.59053 1.68182 6.45188C1.72682 6.31323 1.80741 6.18882 1.91553 6.09105C2.02365 5.99328 2.15553 5.92558 2.29799 5.89471L5.91666 5.11071L7.77999 1.91205Z" fill="#FFCF08"/>
</g>
<defs>
<clipPath id="clip0_3_268">
<rect width="16" height="16" fill="white" transform="translate(0.5)"/>
</clipPath>
</defs>
</svg>
