<svg width="21" height="21" viewBox="0 0 21 21" fill="none" xmlns="http://www.w3.org/2000/svg">
<path fill-rule="evenodd" clip-rule="evenodd" d="M9.46648 5.41323C8.10625 4.02209 5.8679 4.02209 4.50767 5.41323C3.18998 6.76086 3.18999 8.91422 4.50767 10.2618L10.8526 16.7509C10.8894 16.7885 10.9499 16.7885 10.9867 16.7509L17.3316 10.2618C18.6493 8.91422 18.6493 6.76086 17.3316 5.41323C15.9713 4.02209 13.733 4.02209 12.3728 5.41324L11.4559 6.35093C11.3148 6.49524 11.1215 6.57659 10.9196 6.57659C10.7178 6.57659 10.5244 6.49524 10.3833 6.35093L9.46648 5.41323ZM3.43516 4.36456C5.38378 2.37165 8.59036 2.37165 10.539 4.36456L10.9196 4.75381L11.3002 4.36456C13.2489 2.37165 16.4555 2.37164 18.4041 4.36456C20.2918 6.29513 20.2918 9.37996 18.4041 11.3105L12.0592 17.7996C11.434 18.439 10.4052 18.439 9.78007 17.7996L3.43516 11.3105C1.54749 9.37996 1.54749 6.29513 3.43516 4.36456Z" fill="white"/>
</svg>
