<svg width="21" height="21" viewBox="0 0 21 21" fill="none" xmlns="http://www.w3.org/2000/svg">
<path fill-rule="evenodd" clip-rule="evenodd" d="M9.39642 5.41323C8.03619 4.02209 5.79783 4.02209 4.4376 5.41323C3.11991 6.76086 3.11992 8.91422 4.4376 10.2618L10.7825 16.7509C10.8193 16.7885 10.8798 16.7885 10.9166 16.7509L17.2615 10.2618C18.5792 8.91422 18.5792 6.76086 17.2615 5.41323C15.9012 4.02209 13.6629 4.02209 12.3027 5.41324L11.3858 6.35093C11.2447 6.49524 11.0514 6.57659 10.8495 6.57659C10.6477 6.57659 10.4544 6.49524 10.3133 6.35093L9.39642 5.41323ZM3.36509 4.36456C5.31371 2.37165 8.52029 2.37165 10.4689 4.36456L10.8495 4.75381L11.2301 4.36456C13.1788 2.37165 16.3854 2.37164 18.334 4.36456C20.2217 6.29513 20.2217 9.37996 18.334 11.3105L11.9891 17.7996C11.3639 18.439 10.3352 18.439 9.71001 17.7996L3.36509 11.3105C1.47742 9.37996 1.47742 6.29513 3.36509 4.36456Z" fill="white"/>
</svg>
