<svg width="21" height="21" viewBox="0 0 21 21" fill="none" xmlns="http://www.w3.org/2000/svg">
<path fill-rule="evenodd" clip-rule="evenodd" d="M9.39642 5.30324C8.03619 3.9121 5.79783 3.9121 4.4376 5.30324C3.11991 6.65087 3.11992 8.80423 4.4376 10.1519L10.7825 16.6409C10.8193 16.6785 10.8798 16.6785 10.9166 16.6409L17.2615 10.1519C18.5792 8.80423 18.5792 6.65087 17.2615 5.30324C15.9012 3.9121 13.6629 3.9121 12.3027 5.30325L11.3858 6.24094C11.2447 6.38525 11.0514 6.4666 10.8495 6.4666C10.6477 6.4666 10.4544 6.38525 10.3133 6.24094L9.39642 5.30324ZM3.36509 4.25457C5.31371 2.26166 8.52029 2.26166 10.4689 4.25457L10.8495 4.64382L11.2301 4.25457C13.1788 2.26166 16.3854 2.26165 18.334 4.25457C20.2217 6.18514 20.2217 9.26997 18.334 11.2005L11.9891 17.6896C11.3639 18.329 10.3352 18.329 9.71001 17.6896L3.36509 11.2005C1.47742 9.26997 1.47742 6.18514 3.36509 4.25457Z" fill="white"/>
</svg>
