<svg width="21" height="21" viewBox="0 0 21 21" fill="none" xmlns="http://www.w3.org/2000/svg">
<path fill-rule="evenodd" clip-rule="evenodd" d="M9.46648 5.19326C8.10625 3.80212 5.8679 3.80212 4.50767 5.19326C3.18998 6.54089 3.18999 8.69425 4.50767 10.0419L10.8526 16.531C10.8894 16.5686 10.9499 16.5686 10.9867 16.531L17.3316 10.0419C18.6493 8.69425 18.6493 6.54089 17.3316 5.19326C15.9713 3.80212 13.733 3.80212 12.3728 5.19327L11.4559 6.13096C11.3148 6.27527 11.1215 6.35662 10.9196 6.35662C10.7178 6.35662 10.5244 6.27527 10.3833 6.13096L9.46648 5.19326ZM3.43516 4.14459C5.38378 2.15168 8.59036 2.15168 10.539 4.14459L10.9196 4.53384L11.3002 4.14459C13.2489 2.15168 16.4555 2.15167 18.4041 4.14459C20.2918 6.07516 20.2918 9.15999 18.4041 11.0906L12.0592 17.5797C11.434 18.2191 10.4052 18.2191 9.78007 17.5797L3.43516 11.0906C1.54749 9.15999 1.54749 6.07516 3.43516 4.14459Z" fill="white"/>
</svg>
