<svg width="21" height="20" viewBox="0 0 21 20" fill="none" xmlns="http://www.w3.org/2000/svg">
<path fill-rule="evenodd" clip-rule="evenodd" d="M9.32604 4.54582C7.91674 3.10452 5.5977 3.10452 4.18844 4.54582C2.82326 5.94202 2.82325 8.173 4.18844 9.56925L10.5334 16.0583C10.6191 16.1461 10.7604 16.1461 10.8461 16.0583L17.191 9.56925C18.5562 8.173 18.5562 5.94202 17.191 4.54582C15.7818 3.10452 13.4628 3.10452 12.0535 4.54582L11.1366 5.48352C11.019 5.60377 10.858 5.67157 10.6897 5.67157C10.5215 5.67157 10.3605 5.60377 10.2429 5.48352L9.32604 4.54582ZM3.29468 3.67192C5.19427 1.72915 8.32017 1.72916 10.2198 3.67192L10.6897 4.15258L11.1597 3.67192C13.0593 1.72916 16.1852 1.72915 18.0848 3.67192C19.925 5.55391 19.925 8.56108 18.0848 10.4431L11.7399 16.9322C11.1638 17.5214 10.2157 17.5214 9.63962 16.9322L3.29468 10.4431C1.45451 8.56108 1.45451 5.55391 3.29468 3.67192Z" fill="#1D1D1D"/>
</svg>
