<svg width="21" height="21" viewBox="0 0 21 21" fill="none" xmlns="http://www.w3.org/2000/svg">
<path fill-rule="evenodd" clip-rule="evenodd" d="M9.39642 5.52321C8.03619 4.13207 5.79783 4.13207 4.4376 5.52321C3.11991 6.87084 3.11992 9.0242 4.4376 10.3718L10.7825 16.8609C10.8193 16.8985 10.8798 16.8985 10.9166 16.8609L17.2615 10.3718C18.5792 9.0242 18.5792 6.87084 17.2615 5.52321C15.9012 4.13207 13.6629 4.13207 12.3027 5.52322L11.3858 6.46091C11.2447 6.60522 11.0514 6.68657 10.8495 6.68657C10.6477 6.68657 10.4544 6.60522 10.3133 6.46091L9.39642 5.52321ZM3.36509 4.47454C5.31371 2.48163 8.52029 2.48163 10.4689 4.47454L10.8495 4.86379L11.2301 4.47454C13.1788 2.48163 16.3854 2.48162 18.334 4.47454C20.2217 6.40511 20.2217 9.48995 18.334 11.4205L11.9891 17.9096C11.3639 18.549 10.3352 18.549 9.71001 17.9096L3.36509 11.4205C1.47742 9.48995 1.47742 6.40511 3.36509 4.47454Z" fill="white"/>
</svg>
