<svg width="21" height="21" viewBox="0 0 21 21" fill="none" xmlns="http://www.w3.org/2000/svg">
<path fill-rule="evenodd" clip-rule="evenodd" d="M9.46648 5.30324C8.10625 3.9121 5.8679 3.9121 4.50767 5.30324C3.18998 6.65087 3.18999 8.80423 4.50767 10.1519L10.8526 16.6409C10.8894 16.6785 10.9499 16.6785 10.9867 16.6409L17.3316 10.1519C18.6493 8.80423 18.6493 6.65087 17.3316 5.30324C15.9713 3.9121 13.733 3.9121 12.3728 5.30325L11.4559 6.24094C11.3148 6.38525 11.1215 6.4666 10.9196 6.4666C10.7178 6.4666 10.5244 6.38525 10.3833 6.24094L9.46648 5.30324ZM3.43516 4.25457C5.38378 2.26166 8.59036 2.26166 10.539 4.25457L10.9196 4.64382L11.3002 4.25457C13.2489 2.26166 16.4555 2.26165 18.4041 4.25457C20.2918 6.18514 20.2918 9.26997 18.4041 11.2005L12.0592 17.6896C11.434 18.329 10.4052 18.329 9.78007 17.6896L3.43516 11.2005C1.54749 9.26997 1.54749 6.18514 3.43516 4.25457Z" fill="white"/>
</svg>
