<svg width="21" height="21" viewBox="0 0 21 21" fill="none" xmlns="http://www.w3.org/2000/svg">
<path fill-rule="evenodd" clip-rule="evenodd" d="M9.46648 5.52321C8.10625 4.13207 5.8679 4.13207 4.50767 5.52321C3.18998 6.87084 3.18999 9.0242 4.50767 10.3718L10.8526 16.8609C10.8894 16.8985 10.9499 16.8985 10.9867 16.8609L17.3316 10.3718C18.6493 9.0242 18.6493 6.87084 17.3316 5.52321C15.9713 4.13207 13.733 4.13207 12.3728 5.52322L11.4559 6.46091C11.3148 6.60522 11.1215 6.68657 10.9196 6.68657C10.7178 6.68657 10.5244 6.60522 10.3833 6.46091L9.46648 5.52321ZM3.43516 4.47454C5.38378 2.48163 8.59036 2.48163 10.539 4.47454L10.9196 4.86379L11.3002 4.47454C13.2489 2.48163 16.4555 2.48162 18.4041 4.47454C20.2918 6.40511 20.2918 9.48995 18.4041 11.4205L12.0592 17.9096C11.434 18.549 10.4052 18.549 9.78007 17.9096L3.43516 11.4205C1.54749 9.48995 1.54749 6.40511 3.43516 4.47454Z" fill="white"/>
</svg>
