<svg width="20" height="24" viewBox="0 0 20 24" fill="none" xmlns="http://www.w3.org/2000/svg">
<path fill-rule="evenodd" clip-rule="evenodd" d="M3.33325 5.54163C2.98808 5.54163 2.70825 5.82145 2.70825 6.16663C2.70825 6.51181 2.98808 6.79163 3.33325 6.79163H16.6666C17.0118 6.79163 17.2916 6.5118 17.2916 6.16663C17.2916 5.82145 17.0118 5.54163 16.6666 5.54163H3.33325ZM2.70825 12C2.70825 11.6548 2.98808 11.375 3.33325 11.375H16.6666C17.0118 11.375 17.2916 11.6548 17.2916 12C17.2916 12.3451 17.0118 12.625 16.6666 12.625H3.33325C2.98808 12.625 2.70825 12.3451 2.70825 12ZM2.70825 17.8333C2.70825 17.4881 2.98808 17.2083 3.33325 17.2083H16.6666C17.0118 17.2083 17.2916 17.4881 17.2916 17.8333C17.2916 18.1785 17.0118 18.4583 16.6666 18.4583H3.33325C2.98808 18.4583 2.70825 18.1785 2.70825 17.8333Z" fill="#1D1D1D"/>
</svg>
