<svg width="20" height="20" viewBox="0 0 20 20" fill="none" xmlns="http://www.w3.org/2000/svg">
<path fill-rule="evenodd" clip-rule="evenodd" d="M1.75 17.5C1.75 17.3424 1.79861 17.1962 1.88165 17.0754C2.42416 16.2616 2.6164 15.9637 2.69829 15.7479C2.79994 15.4799 2.83219 15.3638 2.84599 15.2654C2.85979 15.1669 2.86071 15.0464 2.83664 14.7609C2.82966 14.6781 2.78994 14.4901 2.67388 14.0954C2.56298 13.7183 2.40063 13.2104 2.17858 12.5159C1.9362 11.7579 1.75 10.8894 1.75 10C1.75 5.44365 5.44365 1.75 10 1.75C14.5563 1.75 18.25 5.44365 18.25 10C18.25 14.5563 14.5563 18.25 10 18.25H2.5C2.08579 18.25 1.75 17.9142 1.75 17.5ZM10 14.1667C10.4602 14.1667 10.8333 13.7936 10.8333 13.3333C10.8333 12.8731 10.4602 12.5 10 12.5C9.53976 12.5 9.16667 12.8731 9.16667 13.3333C9.16667 13.7936 9.53976 14.1667 10 14.1667ZM10 7.41667C9.49374 7.41667 9.08333 7.82707 9.08333 8.33333V8.75C9.08333 9.16421 8.74755 9.5 8.33333 9.5C7.91912 9.5 7.58333 9.16421 7.58333 8.75V8.33333C7.58333 6.99865 8.66531 5.91667 10 5.91667C11.3347 5.91667 12.4167 6.99865 12.4167 8.33333V8.43443C12.4167 9.10219 12.1514 9.74259 11.6792 10.2148L10.5303 11.3637C10.2374 11.6566 9.76256 11.6566 9.46967 11.3637C9.17677 11.0708 9.17677 10.5959 9.46967 10.303L10.6186 9.1541C10.8094 8.96324 10.9167 8.70436 10.9167 8.43443V8.33333C10.9167 7.82707 10.5063 7.41667 10 7.41667Z" fill="#1D1D1D"/>
</svg>
