<svg width="33" height="32" viewBox="0 0 33 32" fill="none" xmlns="http://www.w3.org/2000/svg">
<path fill-rule="evenodd" clip-rule="evenodd" d="M4.23855 6.66668C3.16675 8.52312 3.16675 11.0154 3.16675 16C3.16675 20.9846 3.16675 23.477 4.23855 25.3334C4.94069 26.5495 5.9506 27.5594 7.16675 28.2615C9.02314 29.3334 11.5155 29.3334 16.5001 29.3334C21.4847 29.3334 23.977 29.3334 25.8334 28.2615C27.0495 27.5594 28.0595 26.5495 28.7616 25.3334C29.8334 23.477 29.8334 20.9846 29.8334 16C29.8334 11.0154 29.8334 8.52312 28.7616 6.66668C28.0595 5.45052 27.0495 4.44062 25.8334 3.73847C23.977 2.66667 21.4847 2.66667 16.5001 2.66667C11.5155 2.66667 9.02314 2.66667 7.16675 3.73847C5.9506 4.44062 4.94069 5.45052 4.23855 6.66668ZM8.16677 11H10.1112C10.6082 11 10.7951 11.2175 10.9815 11.7559C11.9324 14.5262 13.5359 16.9472 14.1951 16.9472C14.4423 16.9472 14.5557 16.8334 14.5557 16.2055V13.3422C14.5111 12.527 14.2263 12.1746 14.0154 11.9135C13.8852 11.7522 13.7831 11.6259 13.7831 11.447C13.7831 11.2294 13.9689 11 14.2779 11H17.3335C17.7455 11 17.889 11.2203 17.889 11.7148V15.567C17.889 15.979 18.0679 16.1231 18.1915 16.1231C18.4387 16.1231 18.6447 15.979 19.0979 15.5258C20.4987 13.9602 21.4875 11.5499 21.4875 11.5499C21.6111 11.2615 21.8391 11 22.3335 11H24.2779C24.8659 11 24.9895 11.3027 24.8659 11.7148C24.6363 12.7668 22.5773 15.7194 22.2843 16.1359L22.2497 16.185C22.0437 16.5145 21.9613 16.6794 22.2497 17.0501C22.3512 17.1923 22.5679 17.4046 22.8159 17.6475C23.0709 17.8973 23.3589 18.1794 23.5887 18.451C24.4239 19.3906 25.0534 20.1833 25.2287 20.7296C25.389 21.2778 25.1112 21.5556 24.5556 21.5556H22.6112C22.0904 21.5556 21.8282 21.2638 21.2615 20.6334C21.0212 20.3662 20.7263 20.0382 20.3339 19.6458C19.1803 18.5334 18.6859 18.3891 18.3975 18.3891C18.0061 18.3891 17.889 18.5 17.889 19.0556V20.7994C17.889 21.2778 17.7361 21.5556 16.5001 21.5556C14.4401 21.5556 12.1763 20.3049 10.5695 17.9978C8.15931 14.6194 7.5001 12.065 7.5001 11.5499C7.5001 11.2615 7.61122 11 8.16677 11Z" fill="#1D1D1D" fill-opacity="0.5"/>
</svg>
