<svg width="33" height="32" viewBox="0 0 33 32" fill="none" xmlns="http://www.w3.org/2000/svg">
<path fill-rule="evenodd" clip-rule="evenodd" d="M4.23855 6.66668C3.16675 8.52312 3.16675 11.0154 3.16675 16C3.16675 20.9846 3.16675 23.477 4.23855 25.3334C4.94069 26.5495 5.9506 27.5594 7.16676 28.2615C9.0232 29.3334 11.5154 29.3334 16.5001 29.3334C21.4847 29.3334 23.977 29.3334 25.8334 28.2615C27.0496 27.5594 28.0594 26.5495 28.7616 25.3334C29.8334 23.477 29.8334 20.9846 29.8334 16C29.8334 11.0154 29.8334 8.52312 28.7616 6.66668C28.0594 5.45052 27.0496 4.44062 25.8334 3.73847C23.977 2.66667 21.4847 2.66667 16.5001 2.66667C11.5154 2.66667 9.0232 2.66667 7.16676 3.73847C5.9506 4.44062 4.94069 5.45052 4.23855 6.66668ZM18.2195 12.1299C18.2195 11.187 17.4484 10.4201 16.5002 10.4201C15.5529 10.4201 14.7809 11.187 14.7809 12.1299C14.7809 13.0718 15.5529 13.8389 16.5002 13.8389C17.4484 13.8389 18.2195 13.0718 18.2195 12.1299ZM20.6526 12.1299C20.6526 14.4063 18.7906 16.2579 16.5002 16.2579C14.2102 16.2579 12.3477 14.4063 12.3477 12.1299C12.3477 9.8524 14.2102 8 16.5002 8C18.7906 8 20.6526 9.8524 20.6526 12.1299ZM20.5914 18.6333C19.8408 19.1025 19.0255 19.435 18.1802 19.6266L20.5017 21.935C20.9773 22.407 20.9773 23.1733 20.5017 23.6457C20.0266 24.1182 19.2565 24.1182 18.7819 23.6457L16.4997 21.3771L14.2194 23.6457C13.9816 23.8817 13.6701 23.9998 13.3585 23.9998C13.0474 23.9998 12.7364 23.8817 12.4986 23.6457C12.0235 23.1733 12.0235 22.4074 12.4982 21.935L14.8197 19.6266C13.9743 19.435 13.159 19.1018 12.4083 18.6333C11.8401 18.2772 11.6693 17.5306 12.0274 16.9652C12.3846 16.3989 13.1353 16.2285 13.7045 16.5846C15.4044 17.6479 17.5945 17.6484 19.2953 16.5846C19.8646 16.2285 20.6153 16.3989 20.9729 16.9652C21.331 17.5302 21.1598 18.2772 20.5914 18.6333Z" fill="#1D1D1D" fill-opacity="0.5"/>
</svg>
