<svg width="32" height="32" viewBox="0 0 32 32" fill="none" xmlns="http://www.w3.org/2000/svg">
<g clip-path="url(#clip0_6_750)">
<path d="M0 9.6C0 6.2397 0 4.55953 0.65396 3.27606C1.2292 2.14709 2.14709 1.2292 3.27606 0.65396C4.55953 0 6.2397 0 9.6 0H22.4C25.7603 0 27.4404 0 28.7239 0.65396C29.8529 1.2292 30.7708 2.14709 31.3461 3.27606C32 4.55953 32 6.2397 32 9.6V22.4C32 25.7603 32 27.4404 31.3461 28.7239C30.7708 29.8529 29.8529 30.7708 28.7239 31.3461C27.4404 32 25.7603 32 22.4 32H9.6C6.2397 32 4.55953 32 3.27606 31.3461C2.14709 30.7708 1.2292 29.8529 0.65396 28.7239C0 27.4404 0 25.7603 0 22.4V9.6Z" fill="#FF3000"/>
<path d="M24.1031 26.5C22.6747 26.5 21.6907 25.717 21.6907 23.2915V22.7698H23.2778V23.2918C23.2778 24.5813 23.6271 24.9343 24.1031 24.9343C24.5792 24.9343 24.9128 24.5813 24.9128 23.9826C24.9128 23.2302 24.8017 22.816 23.6905 22.033C22.3889 21.1274 21.7857 20.1602 21.7857 18.9168C21.7857 17.3356 22.6427 16.3839 24.1031 16.3839C25.1189 16.3839 26.4683 16.691 26.4683 19.2698V19.8685H24.8811V19.2698C24.8811 18.2567 24.5478 17.9189 24.1031 17.9189C23.6271 17.9189 23.3729 18.2567 23.3729 18.8552C23.3729 19.4691 23.5157 19.9757 24.6269 20.8048C26.0079 21.8333 26.5 22.6469 26.5 23.9823C26.5 25.3176 25.8648 26.5 24.1031 26.5ZM18.6904 26.5C17.2619 26.5 16.2778 25.8399 16.2778 23.2915V22.7698H17.8651V23.2918C17.8651 24.5813 18.2143 24.9343 18.6904 24.9343C19.1664 24.9343 19.5 24.5813 19.5 23.9826C19.5 23.2302 19.3889 22.816 18.2778 22.033C16.9761 21.1274 16.3729 20.1602 16.3729 18.9168C16.3729 17.3356 17.2299 16.3839 18.6904 16.3839C19.7062 16.3839 21.0555 16.691 21.0555 19.2698V19.8685H19.4683V19.2698C19.4683 18.2567 19.135 17.9189 18.6904 17.9189C18.2143 17.9189 17.9602 18.2567 17.9602 18.8552C17.9602 19.4691 18.1029 19.9757 19.2141 20.8048C20.5952 21.8333 21.0872 22.6469 21.0872 23.9823C21.0872 25.3176 20.4524 26.5 18.6904 26.5ZM24.1031 15.6161C22.6747 15.6161 21.6907 14.8331 21.6907 12.4076V11.886H23.2778V12.408C23.2778 13.6975 23.6271 14.0504 24.1031 14.0504C24.5792 14.0504 24.9128 13.6974 24.9128 13.0987C24.9128 12.3463 24.8017 11.9321 23.6905 11.1491C22.3889 10.2435 21.7857 9.2763 21.7857 8.0329C21.7857 6.45175 22.6427 5.5 24.1031 5.5C25.1189 5.5 26.4683 5.8071 26.4683 8.38585V8.9846H24.8811V8.38585C24.8811 7.3728 24.5478 7.03505 24.1031 7.03505C23.6271 7.03505 23.3729 7.3728 23.3729 7.9713C23.3729 8.58525 23.5157 9.09175 24.6269 9.9209C26.0079 10.9494 26.5 11.7631 26.5 13.0984C26.5 14.4338 25.8648 15.6161 24.1031 15.6161ZM18.6904 15.6161C17.2619 15.6161 16.2778 14.956 16.2778 12.4076V11.886H17.8651V12.408C17.8651 13.6975 18.2143 14.0504 18.6904 14.0504C19.1664 14.0504 19.5 13.6974 19.5 13.0987C19.5 12.3463 19.3889 11.9321 18.2778 11.1491C16.9761 10.2435 16.3729 9.2763 16.3729 8.0329C16.3729 6.45175 17.2299 5.5 18.6904 5.5C19.7062 5.5 21.0555 5.8071 21.0555 8.38585V8.9846H19.4683V8.38585C19.4683 7.3728 19.135 7.03505 18.6904 7.03505C18.2143 7.03505 17.9602 7.3728 17.9602 7.9713C17.9602 8.58525 18.1029 9.09175 19.2141 9.9209C20.5952 10.9494 21.0872 11.7631 21.0872 13.0984C21.0872 14.4338 20.4524 15.6161 18.6904 15.6161ZM7.0875 22.7698H7.4051C8.1036 22.7698 8.45255 22.432 8.45255 20.8664V19.976C8.45255 18.4103 8.1033 18.0725 7.4051 18.0725H7.0875V22.7698ZM7.0875 26.3465H5.5003V16.5372H7.4051C9.46865 16.5372 10.0401 17.6731 10.0401 19.8224V21.0196C10.0401 23.1686 9.46865 24.3049 7.4051 24.3049H7.0875V26.3465ZM7.4048 10.3509H7.0872V7.1886H7.4048C8.119 7.1886 8.45225 7.41895 8.45225 8.4933V9.04595C8.45255 10.1205 8.1193 10.3509 7.4048 10.3509ZM10.3413 15.4628L9.1191 11.3794C9.7065 10.9035 10.0398 10.1206 10.0398 9.15365V8.38615C10.0398 6.5901 9.21445 5.65355 7.4048 5.65355H5.5V15.4628H7.0872V11.886H7.2937C7.3731 11.886 7.48415 11.8859 7.65865 11.8705L8.61105 15.4626L10.3413 15.4628ZM12.1508 22.7698L12.9604 18.0725H13.0875L13.8968 22.7698H12.1508ZM14.5001 26.3465H16.0874L14.3254 16.5372H11.7224L9.9447 26.3465H11.5319L11.8968 24.3049H14.1509L14.5001 26.3465ZM13.1825 15.6161C11.23 15.6161 10.8651 14.1885 10.8651 12.4538V5.65355H12.516V12.5921C12.516 13.8049 12.7381 14.081 13.1825 14.081C13.6268 14.081 13.849 13.8049 13.849 12.5921V5.65355H15.5V12.4541C15.5 14.1885 15.135 15.6161 13.1825 15.6161Z" fill="white"/>
</g>
<defs>
<clipPath id="clip0_6_750">
<rect width="32" height="32" fill="white"/>
</clipPath>
</defs>
</svg>
