<svg width="33" height="32" viewBox="0 0 33 32" fill="none" xmlns="http://www.w3.org/2000/svg">
<path fill-rule="evenodd" clip-rule="evenodd" d="M4.23855 6.66668C3.16675 8.52312 3.16675 11.0154 3.16675 16C3.16675 20.9846 3.16675 23.477 4.23855 25.3334C4.94069 26.5495 5.9506 27.5594 7.16675 28.2615C9.02314 29.3334 11.5155 29.3334 16.5001 29.3334C21.4847 29.3334 23.977 29.3334 25.8334 28.2615C27.0495 27.5594 28.0595 26.5495 28.7616 25.3334C29.8334 23.477 29.8334 20.9846 29.8334 16C29.8334 11.0154 29.8334 8.52312 28.7616 6.66668C28.0595 5.45052 27.0495 4.44062 25.8334 3.73847C23.977 2.66667 21.4847 2.66667 16.5001 2.66667C11.5155 2.66667 9.02314 2.66667 7.16675 3.73847C5.9506 4.44062 4.94069 5.45052 4.23855 6.66668ZM21.5366 16.487L13.5366 21.8203C13.4362 21.8873 13.3195 21.9258 13.199 21.9316C13.0784 21.9374 12.9586 21.9104 12.8522 21.8535C12.7458 21.7966 12.6568 21.7118 12.5948 21.6082C12.5328 21.5047 12.5001 21.3863 12.5001 21.2657V10.599C12.5001 10.4783 12.5328 10.3599 12.5948 10.2564C12.6568 10.1529 12.7458 10.0681 12.8522 10.0112C12.9586 9.95424 13.0784 9.92728 13.199 9.93312C13.3195 9.93888 13.4362 9.97736 13.5366 10.0443L21.5366 15.3777C21.6279 15.4385 21.7027 15.521 21.7546 15.6178C21.8063 15.7146 21.8335 15.8226 21.8335 15.9323C21.8335 16.0421 21.8063 16.1502 21.7546 16.2469C21.7027 16.3437 21.6279 16.4262 21.5366 16.487Z" fill="#1D1D1D" fill-opacity="0.5"/>
</svg>
