<svg width="20" height="20" viewBox="0 0 20 20" fill="none" xmlns="http://www.w3.org/2000/svg">
<path fill-rule="evenodd" clip-rule="evenodd" d="M8.75147 2.75C5.43777 2.75 2.75146 5.43629 2.75146 8.75C2.75146 12.0637 5.43777 14.75 8.75147 14.75C12.0652 14.75 14.7515 12.0637 14.7515 8.75C14.7515 7.1587 14.1193 5.63258 12.9941 4.50736C11.8689 3.38214 10.3428 2.75 8.75147 2.75ZM1.25146 8.75C1.25146 4.60786 4.60934 1.25 8.75147 1.25C10.7406 1.25 12.6483 2.04018 14.0548 3.4467C15.4613 4.85322 16.2515 6.76088 16.2515 8.75C16.2515 12.8921 12.8936 16.25 8.75147 16.25C4.60934 16.25 1.25146 12.8921 1.25146 8.75ZM17.9735 16.4304L15.8446 14.712C15.5225 14.392 15.0061 14.392 14.684 14.712C14.517 14.8802 14.4231 15.1087 14.4231 15.347C14.4231 15.5854 14.517 15.8139 14.684 15.9821L16.4507 18.0069C16.8814 18.4422 17.5797 18.4422 18.0104 18.0069C18.4411 17.5715 18.4411 16.8657 18.0104 16.4304H17.9735ZM3.7501 8.75C3.7501 5.98858 5.98868 3.75 8.7501 3.75C10.0762 3.75 11.348 4.27678 12.2856 5.21447C13.2233 6.15215 13.7501 7.42392 13.7501 8.75C13.7501 11.5114 11.5115 13.75 8.7501 13.75C5.98868 13.75 3.7501 11.5114 3.7501 8.75Z" fill="#1D1D1D"/>
</svg>
