<svg width="33" height="32" viewBox="0 0 33 32" fill="none" xmlns="http://www.w3.org/2000/svg">
<path fill-rule="evenodd" clip-rule="evenodd" d="M4.23855 6.66668C3.16675 8.52312 3.16675 11.0154 3.16675 16C3.16675 20.9846 3.16675 23.477 4.23855 25.3334C4.94069 26.5495 5.9506 27.5594 7.16676 28.2615C9.0232 29.3334 11.5154 29.3334 16.5001 29.3334C21.4847 29.3334 23.977 29.3334 25.8334 28.2615C27.0496 27.5594 28.0595 26.5495 28.7616 25.3334C29.8334 23.477 29.8334 20.9846 29.8334 16C29.8334 11.0154 29.8334 8.52312 28.7616 6.66668C28.0595 5.45052 27.0496 4.44062 25.8334 3.73847C23.977 2.66667 21.4847 2.66667 16.5001 2.66667C11.5154 2.66667 9.0232 2.66667 7.16676 3.73847C5.9506 4.44062 4.94069 5.45052 4.23855 6.66668ZM16.5001 2.66667L16.0185 9.5884C15.7973 12.7673 13.2674 15.2972 10.0885 15.5184L3.16675 16L10.0885 16.4816C13.2674 16.7028 15.7973 19.2327 16.0185 22.4116L16.5001 29.3334L16.9817 22.4116C17.2029 19.2327 19.7328 16.7028 22.9117 16.4816L29.8334 16L22.9117 15.5184C19.7328 15.2972 17.2029 12.7673 16.9817 9.5884L16.5001 2.66667Z" fill="#1D1D1D" fill-opacity="0.5"/>
</svg>
