<svg width="25" height="24" viewBox="0 0 25 24" fill="none" xmlns="http://www.w3.org/2000/svg">
<path fill-rule="evenodd" clip-rule="evenodd" d="M10.72 2.25H10.6748C9.54037 2.24999 8.62568 2.24997 7.89619 2.33221C7.14192 2.41725 6.4934 2.59807 5.93711 3.02493C5.67712 3.22443 5.4444 3.45715 5.2449 3.71714C4.81804 4.27343 4.63722 4.92195 4.55218 5.67622C4.46994 6.40571 4.46996 7.3204 4.46997 8.45481V8.5V15.5V15.5452C4.46996 16.6796 4.46994 17.5943 4.55218 18.3238C4.63722 19.0781 4.81804 19.7266 5.2449 20.2829C5.4444 20.5429 5.67712 20.7756 5.93711 20.9751C6.4934 21.4019 7.14192 21.5828 7.89619 21.6678C8.62568 21.75 9.54036 21.75 10.6748 21.75H10.72H11.22C11.6342 21.75 11.97 21.4142 11.97 21C11.97 20.5858 11.6342 20.25 11.22 20.25H10.72C9.52974 20.25 8.69984 20.2489 8.06423 20.1772C7.44373 20.1073 7.1019 19.9781 6.85026 19.785C6.69426 19.6653 6.55463 19.5257 6.43493 19.3697C6.24184 19.1181 6.11269 18.7762 6.04274 18.1557C5.97109 17.5201 5.96997 16.6902 5.96997 15.5V8.5C5.96997 7.30977 5.97109 6.47987 6.04274 5.84426C6.11269 5.22376 6.24184 4.88193 6.43493 4.63029C6.55463 4.47429 6.69426 4.33466 6.85026 4.21496C7.1019 4.02187 7.44373 3.89272 8.06423 3.82277C8.69984 3.75112 9.52974 3.75 10.72 3.75H11.22C11.6342 3.75 11.97 3.41421 11.97 3C11.97 2.58579 11.6342 2.25 11.22 2.25H10.72ZM16.7503 7.46967C16.4574 7.17678 15.9826 7.17678 15.6897 7.46967C15.3968 7.76256 15.3968 8.23744 15.6897 8.53033L18.4093 11.25H11.22C10.8058 11.25 10.47 11.5858 10.47 12C10.47 12.4142 10.8058 12.75 11.22 12.75H18.4093L15.6897 15.4697C15.3968 15.7626 15.3968 16.2374 15.6897 16.5303C15.9826 16.8232 16.4574 16.8232 16.7503 16.5303L20.7503 12.5303C21.0432 12.2374 21.0432 11.7626 20.7503 11.4697L16.7503 7.46967Z" fill="#E76D00"/>
</svg>
