<svg width="24" height="24" viewBox="0 0 24 24" fill="none" xmlns="http://www.w3.org/2000/svg">
<path d="M7.2 11.6C9.52125 11.6 11.4 9.72126 11.4 7.40001C11.4 5.07876 9.52125 3.20001 7.2 3.20001C4.87875 3.20001 3 5.07876 3 7.40001C3 9.72126 4.87875 11.6 7.2 11.6ZM10.08 12.8H9.76875C8.98875 13.175 8.1225 13.4 7.2 13.4C6.2775 13.4 5.415 13.175 4.63125 12.8H4.32C1.935 12.8 0 14.735 0 17.12V18.2C0 19.1938 0.80625 20 1.8 20H12.6C13.5938 20 14.4 19.1938 14.4 18.2V17.12C14.4 14.735 12.465 12.8 10.08 12.8ZM18 11.6C19.9875 11.6 21.6 9.98751 21.6 8.00001C21.6 6.01251 19.9875 4.40001 18 4.40001C16.0125 4.40001 14.4 6.01251 14.4 8.00001C14.4 9.98751 16.0125 11.6 18 11.6ZM19.8 12.8H19.6575C19.1363 12.98 18.585 13.1 18 13.1C17.415 13.1 16.8638 12.98 16.3425 12.8H16.2C15.435 12.8 14.73 13.0213 14.1113 13.3775C15.0263 14.3638 15.6 15.6725 15.6 17.12V18.56C15.6 18.6425 15.5813 18.7213 15.5775 18.8H22.2C23.1938 18.8 24 17.9938 24 17C24 14.6788 22.1213 12.8 19.8 12.8Z" fill="#1D1D1D"/>
</svg>
