<svg width="24" height="24" viewBox="0 0 24 24" fill="none" xmlns="http://www.w3.org/2000/svg">
<path fill-rule="evenodd" clip-rule="evenodd" d="M18.959 3.49843C15.8382 0.589699 10.1307 1.43237 6.11423 5.44993C2.16996 9.39531 1.27909 14.9488 3.97006 18.1099C4.39764 18.6276 5.46841 19.6124 5.46841 19.6124C6.93897 20.903 8.59194 21.566 10.5477 21.566C13.3898 21.566 16.5555 20.2308 19.0881 17.7009C23.3654 13.4282 23.3582 8.32937 20.4028 4.95353C20.4028 4.95353 19.2663 3.70994 18.959 3.49843ZM14.2461 2.48352C11.7368 2.48352 8.89194 3.69156 6.61073 5.97342C2.81318 9.77204 2.00805 15.1411 4.79918 17.9464C7.60373 20.7384 12.9713 19.933 16.7688 16.1344C20.5664 12.3358 21.3849 6.95328 18.5804 4.16136C17.4532 3.03385 15.9369 2.48352 14.2461 2.48352ZM9.77454 16.7269C8.64006 16.7269 7.62558 16.3667 6.8729 15.6244C5.93477 14.6857 5.57479 13.2994 5.8475 11.7166C6.12021 10.1665 6.97107 8.61649 8.24736 7.33934C9.52365 6.0622 11.0726 5.21077 12.6216 4.93787C14.1925 4.65406 15.5887 5.0252 16.5269 5.96395C17.465 6.90271 17.825 8.28901 17.5523 9.8718C17.2795 11.4218 16.4287 12.9719 15.1524 14.249C13.5379 15.8646 11.5308 16.7269 9.77454 16.7269ZM13.6361 5.42908C13.3416 5.42908 13.0471 5.45091 12.7307 5.51641C11.3017 5.76747 9.86181 6.56432 8.67279 7.75414C7.48377 8.94396 6.68745 10.3958 6.43656 11.8148C6.19657 13.2011 6.50201 14.4128 7.29833 15.2096C8.96732 16.8797 12.3162 16.2684 14.7488 13.8342C15.9378 12.6444 16.7341 11.1926 16.985 9.77356C17.225 8.38726 16.9196 7.17561 16.1232 6.37875C15.5015 5.75656 14.6397 5.42908 13.6361 5.42908Z" fill="#262626"/>
<path d="M18.959 3.49844L18.6181 3.8642L18.6451 3.88938L18.6755 3.91032L18.959 3.49844ZM3.97005 18.1099L4.3556 17.7914L4.35078 17.7858L3.97005 18.1099ZM5.4684 19.6124L5.12983 19.9805L5.13858 19.9882L5.4684 19.6124ZM20.4028 4.95354L20.7791 4.62412L20.7719 4.61623L20.4028 4.95354ZM4.79917 17.9464L4.44472 18.2991L4.44641 18.3008L4.79917 17.9464ZM18.5804 4.16137L18.2268 4.51487L18.2276 4.51572L18.5804 4.16137ZM6.87289 15.6244L6.5192 15.9779L6.5218 15.9804L6.87289 15.6244ZM5.84749 11.7166L5.35505 11.6299L5.35475 11.6317L5.84749 11.7166ZM12.6216 4.93788L12.7084 5.4303L12.7105 5.42992L12.6216 4.93788ZM17.5523 9.87181L18.0447 9.95845L18.045 9.95671L17.5523 9.87181ZM12.7307 5.51642L12.8172 6.00888L12.8247 6.00757L12.8321 6.00604L12.7307 5.51642ZM6.43655 11.8148L5.94418 11.7278L5.94388 11.7295L6.43655 11.8148ZM16.985 9.77357L17.4774 9.86062L17.4777 9.85886L16.985 9.77357ZM19.2999 3.13267C17.6032 1.55126 15.2309 1.01598 12.798 1.38241C10.3645 1.74892 7.83792 3.01855 5.76062 5.09644L6.46782 5.80345C8.40695 3.86378 10.7424 2.70329 12.9469 2.37125C15.1521 2.03914 17.194 2.53688 18.6181 3.8642L19.2999 3.13267ZM5.76062 5.09644C1.71758 9.14062 0.66103 14.9942 3.58933 18.434L4.35078 17.7858C1.89712 14.9035 2.62233 9.65002 6.46782 5.80345L5.76062 5.09644ZM3.58455 18.4283C3.81844 18.7115 4.21218 19.1051 4.53178 19.4145C4.69472 19.5722 4.84392 19.7134 4.95236 19.8151C5.00662 19.866 5.05078 19.9071 5.08148 19.9356C5.09683 19.9498 5.10882 19.9609 5.11703 19.9685C5.12114 19.9723 5.1243 19.9752 5.12646 19.9772C5.12755 19.9782 5.12838 19.979 5.12896 19.9795C5.12925 19.9798 5.12967 19.9804 5.12983 19.9805C5.12984 19.9805 5.12992 19.9804 5.4684 19.6124C5.80688 19.2444 5.80688 19.2444 5.80689 19.2444C5.8069 19.2444 5.80688 19.2444 5.80689 19.2444C5.80644 19.244 5.80512 19.2428 5.80416 19.2419C5.80225 19.2401 5.79935 19.2374 5.79551 19.2339C5.78782 19.2268 5.77639 19.2162 5.76163 19.2025C5.7321 19.1751 5.68926 19.1353 5.63646 19.0857C5.53076 18.9866 5.38555 18.8492 5.22736 18.696C4.90467 18.3836 4.54928 18.0259 4.3556 17.7914L3.58455 18.4283ZM5.13858 19.9882C6.69464 21.3539 8.46316 22.066 10.5477 22.066V21.066C8.7207 21.066 7.18328 20.4522 5.79821 19.2366L5.13858 19.9882ZM10.5477 22.066C13.5402 22.066 16.8286 20.6647 19.4415 18.0547L18.7348 17.3472C16.2824 19.7969 13.2394 21.066 10.5477 21.066V22.066ZM19.4415 18.0547C21.6514 15.8471 22.7829 13.3959 22.9564 11.0274C23.13 8.65808 22.3414 6.40874 20.7791 4.62412L20.0266 5.28288C21.4196 6.87411 22.1123 8.8622 21.959 10.9544C21.8057 13.0475 20.8021 15.2821 18.7348 17.3472L19.4415 18.0547ZM20.4028 4.95354C20.7719 4.61623 20.7719 4.61625 20.7719 4.61623C20.7717 4.61605 20.7713 4.61551 20.771 4.61519C20.7704 4.61454 20.7695 4.61359 20.7684 4.61236C20.7661 4.6099 20.7628 4.60629 20.7585 4.60161C20.7499 4.59223 20.7374 4.57854 20.7213 4.56109C20.6892 4.52619 20.6431 4.47623 20.5868 4.41566C20.4744 4.29464 20.321 4.13072 20.1576 3.95976C19.9946 3.78932 19.8193 3.60943 19.6637 3.4574C19.5191 3.31611 19.3605 3.16777 19.2425 3.08655L18.6755 3.91032C18.7112 3.93486 18.8099 4.02129 18.9648 4.17266C19.1088 4.31329 19.2752 4.48396 19.4348 4.65085C19.5939 4.81723 19.7438 4.97742 19.8541 5.09619C19.9092 5.15551 19.9543 5.20435 19.9855 5.23829C20.0011 5.25526 20.0133 5.26849 20.0215 5.27744C20.0256 5.28191 20.0287 5.28531 20.0308 5.28757C20.0318 5.2887 20.0326 5.28954 20.0331 5.29009C20.0332 5.29011 20.0338 5.29084 20.0338 5.29085C20.0338 5.29085 20.0338 5.29085 20.4028 4.95354ZM6.96432 6.32693C9.16688 4.12375 11.8893 2.98353 14.2461 2.98353V1.98353C11.5842 1.98353 8.61699 3.25939 6.25712 5.61993L6.96432 6.32693ZM5.15362 17.5938C3.89641 16.3302 3.41885 14.4599 3.72859 12.407C4.03825 10.3548 5.13365 8.15812 6.96432 6.32693L6.25712 5.61993C4.29024 7.58736 3.08431 9.97452 2.73979 12.2578C2.39536 14.5405 2.9108 16.7574 4.44472 18.2991L5.15362 17.5938ZM16.4152 15.7809C14.5846 17.6121 12.3885 18.7077 10.337 19.0175C8.28484 19.3273 6.41515 18.8496 5.15192 17.5921L4.44641 18.3008C5.98774 19.8352 8.2041 20.3508 10.4863 20.0063C12.769 19.6616 15.1556 18.4553 17.1224 16.4879L16.4152 15.7809ZM18.2276 4.51572C19.4896 5.77195 19.9674 7.64076 19.656 9.69545C19.3448 11.7494 18.246 13.9496 16.4152 15.7809L17.1224 16.4879C19.0892 14.5206 20.2985 12.1302 20.6448 9.84529C20.9909 7.5611 20.4758 5.3427 18.9331 3.80702L18.2276 4.51572ZM14.2461 2.98353C15.8258 2.98353 17.2076 3.49539 18.2268 4.51487L18.934 3.80786C17.6988 2.57233 16.0479 1.98353 14.2461 1.98353V2.98353ZM6.5218 15.9804C7.3837 16.8304 8.53241 17.2269 9.77453 17.2269V16.2269C8.74769 16.2269 7.86743 15.903 7.22397 15.2684L6.5218 15.9804ZM5.35475 11.6317C5.06133 13.3347 5.44044 14.8985 6.5192 15.9779L7.22656 15.271C6.42907 14.473 6.08824 13.264 6.34023 11.8015L5.35475 11.6317ZM7.89368 6.98592C6.55612 8.32437 5.64811 9.9642 5.35505 11.6299L6.33993 11.8032C6.59229 10.3689 7.38601 8.90862 8.60102 7.69279L7.89368 6.98592ZM12.5349 4.44547C10.87 4.73877 9.23123 5.64747 7.89368 6.98592L8.60102 7.69279C9.81605 6.47694 11.2752 5.68278 12.7084 5.4303L12.5349 4.44547ZM16.8805 5.61053C15.8032 4.53251 14.2295 4.13929 12.5327 4.44585L12.7105 5.42992C14.1554 5.16886 15.3742 5.51791 16.1732 6.3174L16.8805 5.61053ZM18.045 9.95671C18.3384 8.2537 17.9593 6.69002 16.8805 5.61053L16.1732 6.3174C16.9707 7.11542 17.3115 8.32435 17.0595 9.78691L18.045 9.95671ZM15.5061 14.6025C16.8436 13.264 17.7516 11.6242 18.0447 9.95845L17.0598 9.78517C16.8075 11.2195 16.0137 12.6798 14.7987 13.8956L15.5061 14.6025ZM9.77453 17.2269C11.6856 17.2269 13.8147 16.2949 15.5061 14.6025L14.7987 13.8956C13.2612 15.4342 11.376 16.2269 9.77453 16.2269V17.2269ZM12.8321 6.00604C13.1081 5.9489 13.3676 5.92909 13.6361 5.92909V4.92909C13.3156 4.92909 12.9861 4.95295 12.6294 5.0268L12.8321 6.00604ZM9.02645 8.10759C10.1554 6.97787 11.5057 6.2393 12.8172 6.00888L12.6442 5.02396C11.0978 5.29566 9.56818 6.1508 8.31911 7.40072L9.02645 8.10759ZM6.92891 11.9019C7.15928 10.5989 7.89814 9.23666 9.02645 8.10759L8.31911 7.40072C7.06938 8.65128 6.2156 10.1926 5.94418 11.7278L6.92891 11.9019ZM7.65199 14.8562C6.99991 14.2037 6.70902 13.1721 6.92922 11.9001L5.94388 11.7295C5.6841 13.2301 6.00409 14.6219 6.94464 15.563L7.65199 14.8562ZM14.3951 13.4808C13.2418 14.6349 11.8855 15.3414 10.6467 15.5693C9.40466 15.7978 8.33618 15.5408 7.65199 14.8562L6.94464 15.563C7.92945 16.5485 9.3699 16.821 10.8277 16.5528C12.2888 16.284 13.8232 15.4678 15.1025 14.1877L14.3951 13.4808ZM16.4927 9.68652C16.2623 10.9895 15.5234 12.3517 14.3951 13.4808L15.1025 14.1877C16.3522 12.9371 17.206 11.3958 17.4774 9.86062L16.4927 9.68652ZM15.7696 6.7322C16.4217 7.38471 16.7125 8.41628 16.4923 9.68828L17.4777 9.85886C17.7375 8.35825 17.4175 6.96652 16.4769 6.02533L15.7696 6.7322ZM13.6361 5.92909C14.5283 5.92909 15.2556 6.2179 15.7696 6.7322L16.4769 6.02533C15.7473 5.29523 14.7511 4.92909 13.6361 4.92909V5.92909Z" fill="#262626"/>
</svg>
