<svg width="22" height="21" viewBox="0 0 22 21" fill="none" xmlns="http://www.w3.org/2000/svg">
<path fill-rule="evenodd" clip-rule="evenodd" d="M5.48784 16.9747C3.70271 15.1048 4.20219 11.648 6.64142 9.21135C9.09725 6.75814 12.6033 6.27396 14.4614 8.12193C14.5297 8.19023 14.5949 8.26076 14.6569 8.33338L15.2612 8.93699C17.1192 10.785 16.6588 14.3276 14.2029 16.7808C12.7488 18.2334 10.9312 19 9.2993 19C8.1764 19 7.14236 18.6369 6.38299 17.8783L5.50244 16.9906C5.49727 16.9855 5.49241 16.9801 5.48784 16.9747ZM6.94032 9.52607C8.31365 8.15421 10.0263 7.42793 11.537 7.42793C12.5548 7.42793 13.4677 7.75879 14.1463 8.43665C15.8347 10.1152 15.3419 13.3511 13.0557 15.6349C10.7695 17.9186 7.53812 18.4028 5.84973 16.7243C4.16942 15.0377 4.65413 11.8098 6.94032 9.52607ZM8.57232 16.9664C7.73217 16.9664 6.98087 16.7001 6.42346 16.1513C5.72872 15.4573 5.46213 14.4325 5.66409 13.2623C5.86605 12.1164 6.49617 10.9705 7.44134 10.0264C8.38652 9.08221 9.53365 8.45276 10.6808 8.25102C11.8441 8.04121 12.8781 8.31558 13.5729 9.00958C14.2676 9.70358 14.5342 10.7284 14.3323 11.8986C14.1303 13.0445 13.5002 14.1904 12.555 15.1345C11.3594 16.3289 9.87295 16.9664 8.57232 16.9664ZM11.4321 8.61416C11.214 8.61416 10.9959 8.6303 10.7616 8.67872C9.7033 8.86432 8.63695 9.45341 7.7564 10.333C6.87585 11.2126 6.28613 12.2859 6.10033 13.335C5.9226 14.3598 6.1488 15.2556 6.73852 15.8447C7.97452 17.0793 10.4546 16.6274 12.2561 14.8279C13.1367 13.9483 13.7264 12.875 13.9122 11.8259C14.0899 10.8011 13.8637 9.90532 13.274 9.31623C12.8135 8.85625 12.1753 8.61416 11.4321 8.61416Z" fill="#1D1D1D"/>
<path d="M16.2812 2.33507C16.7571 2.23123 17.0854 2.79991 16.7575 3.16014L14.7724 5.34106C14.6634 5.46083 14.6191 5.62599 14.6536 5.78422L15.2823 8.66552C15.3862 9.14143 14.8175 9.46976 14.4573 9.14187L12.2764 7.15675C12.1566 7.04773 11.9914 7.00348 11.8332 7.03801L8.95186 7.66671C8.47594 7.77055 8.14762 7.20187 8.47551 6.84164L10.4607 4.66072C10.5697 4.54095 10.6139 4.37579 10.5794 4.21756L9.95067 1.33626C9.84682 0.86035 10.4155 0.532022 10.7758 0.859913L12.9567 2.84503C13.0765 2.95405 13.2416 2.9983 13.3999 2.96377L16.2812 2.33507Z" fill="#FFCF08"/>
<path d="M20.0126 7.79833C20.4885 7.69449 20.8168 8.26317 20.489 8.6234L19.5752 9.62729C19.4662 9.74706 19.4219 9.91222 19.4564 10.0705L19.7458 11.3968C19.8497 11.8727 19.281 12.201 18.9208 11.8731L17.9169 10.9594C17.7971 10.8504 17.632 10.8061 17.4737 10.8406L16.1474 11.13C15.6715 11.2339 15.3432 10.6652 15.6711 10.3049L16.5849 9.30101C16.6939 9.18124 16.7381 9.01608 16.7036 8.85785L16.4142 7.53158C16.3104 7.05566 16.879 6.72733 17.2393 7.05522L18.2432 7.96898C18.3629 8.078 18.5281 8.12225 18.6863 8.08773L20.0126 7.79833Z" fill="#FFCF08"/>
</svg>
