<svg width="20" height="20" viewBox="0 0 20 20" fill="none" xmlns="http://www.w3.org/2000/svg">
<path d="M16.1384 17.7844L16.8114 18.4583L18.1592 17.1124L17.4862 16.4385L16.1384 17.7844ZM13.055 12.001C12.6833 11.6288 12.0803 11.6284 11.7081 12C11.3359 12.3717 11.3355 12.9747 11.7072 13.3469L13.055 12.001ZM17.4862 16.4385L13.055 12.001L11.7072 13.3469L16.1384 17.7844L17.4862 16.4385ZM13.0159 8.70569C13.0159 11.2479 10.955 13.3089 8.41272 13.3089V15.2136C12.007 15.2136 14.9207 12.2999 14.9207 8.70569H13.0159ZM8.41272 13.3089C5.87046 13.3089 3.80955 11.2479 3.80955 8.70569H1.90479C1.90479 12.2999 4.81849 15.2136 8.41272 15.2136V13.3089ZM3.80955 8.70569C3.80955 6.16342 5.87046 4.10252 8.41272 4.10252V2.19775C4.81849 2.19775 1.90479 5.11145 1.90479 8.70569H3.80955ZM8.41272 4.10252C10.955 4.10252 13.0159 6.16342 13.0159 8.70569H14.9207C14.9207 5.11145 12.007 2.19775 8.41272 2.19775V4.10252Z" fill="#747474"/>
</svg>
