<svg width="17" height="16" viewBox="0 0 17 16" fill="none" xmlns="http://www.w3.org/2000/svg">
<g clip-path="url(#clip0_7_1285)">
<path d="M3.15597 10.0749L2.73197 10.4999L3.57997 11.3479L4.00397 10.9239L3.15597 10.0749ZM13.913 10.4999L14.338 10.9239L14.513 10.7479V10.4999H13.913ZM13.913 2.49991H14.513V1.52891L13.645 1.96291L13.913 2.49991ZM3.24697 2.49991L2.82197 2.07491C2.7663 2.13077 2.72219 2.19706 2.69217 2.26999C2.66214 2.34291 2.64678 2.42104 2.64697 2.49991H3.24697ZM2.64697 15.1659V15.7659H3.84697V15.1659H2.64697ZM3.57997 10.4999C3.72182 10.6407 3.86282 10.7824 4.00297 10.9249L4.00097 10.9279C3.99999 10.9286 3.99899 10.9293 3.99797 10.9299L3.99497 10.9329L4.00097 10.9279C4.11391 10.8426 4.2354 10.7708 4.36497 10.7139C4.66297 10.5829 5.16297 10.4329 5.91297 10.4329V9.23291C4.99697 9.23291 4.33097 9.41691 3.87797 9.61791C3.65297 9.71791 3.48297 9.82091 3.36397 9.90491C3.30019 9.94998 3.23909 9.99873 3.18097 10.0509L3.16597 10.0649L3.15997 10.0709L3.15797 10.0729L3.15697 10.0739C3.15697 10.0749 3.15597 10.0749 3.57997 10.4999ZM5.91297 10.4329C6.78197 10.4329 7.51297 10.7189 8.35697 11.0569C9.17997 11.3859 10.115 11.7669 11.247 11.7669V10.5669C10.378 10.5669 9.64697 10.2799 8.80297 9.94291C7.97997 9.61291 7.04497 9.23291 5.91297 9.23291V10.4329ZM11.247 11.7659C12.314 11.7659 13.057 11.5879 13.553 11.3899C13.8 11.2909 13.983 11.1879 14.111 11.1029C14.1865 11.0525 14.2584 10.9966 14.326 10.9359L14.332 10.9289L14.335 10.9269L14.336 10.9249H14.337L13.913 10.4999C13.7709 10.3589 13.6299 10.2169 13.49 10.0739L13.492 10.0729L13.494 10.0709L13.497 10.0669C13.4986 10.0656 13.5003 10.0642 13.502 10.0629L13.499 10.0649C13.4817 10.0791 13.4636 10.0925 13.445 10.1049C13.385 10.1449 13.277 10.2079 13.107 10.2749C12.769 10.4109 12.179 10.5659 11.247 10.5659V11.7659ZM14.513 10.4999V2.49991H13.313V10.4999H14.513ZM13.913 2.49991L13.645 1.96291L13.637 1.96691L13.6 1.98491C13.3684 2.09065 13.1314 2.18411 12.89 2.26491C12.42 2.41991 11.823 2.56591 11.247 2.56591V3.76591C12.004 3.76591 12.74 3.57891 13.27 3.40191C13.5731 3.30049 13.8703 3.18197 14.16 3.04691L14.174 3.03991L14.179 3.03791L14.181 3.03691L13.913 2.49991ZM11.247 2.56591C10.378 2.56591 9.64697 2.27991 8.80297 1.94291C7.97997 1.61291 7.04497 1.23291 5.91297 1.23291V2.43291C6.78197 2.43291 7.51297 2.71891 8.35697 3.05691C9.17997 3.38591 10.115 3.76591 11.247 3.76591V2.56591ZM5.91297 1.23291C4.84597 1.23291 4.10297 1.41091 3.60697 1.60891C3.41157 1.68507 3.22458 1.78125 3.04897 1.89591C2.96992 1.94913 2.89503 2.0083 2.82497 2.07291L2.82397 2.07391C2.82297 2.07491 2.82197 2.07491 3.24697 2.49991C3.67097 2.92391 3.67097 2.92391 3.66997 2.92491L3.66897 2.92591L3.66597 2.92791C3.66335 2.93062 3.66068 2.93328 3.65797 2.93591C3.65697 2.93791 3.65797 2.93691 3.66097 2.93391C3.67831 2.91971 3.69633 2.90636 3.71497 2.89391C3.77497 2.85491 3.88297 2.79091 4.05297 2.72391C4.39097 2.58791 4.98097 2.43291 5.91297 2.43291V1.23291ZM3.84697 15.1659V2.49991H2.64697V15.1659H3.84697Z" fill="#1D1D1D"/>
</g>
<defs>
<clipPath id="clip0_7_1285">
<rect width="16" height="16" fill="white" transform="translate(0.580078)"/>
</clipPath>
</defs>
</svg>
