<svg width="17" height="16" viewBox="0 0 17 16" fill="none" xmlns="http://www.w3.org/2000/svg">
<g clip-path="url(#clip0_7_1029)">
<path d="M2.59592 10.075L2.17192 10.5L3.01992 11.348L3.44392 10.924L2.59592 10.075ZM13.3529 10.5L13.7779 10.924L13.9529 10.748V10.5H13.3529ZM13.3529 2.5H13.9529V1.529L13.0849 1.963L13.3529 2.5ZM2.68692 2.5L2.26192 2.075C2.20625 2.13086 2.16214 2.19716 2.13211 2.27008C2.10208 2.34301 2.08672 2.42114 2.08692 2.5H2.68692ZM2.08692 15.166V15.766H3.28692V15.166H2.08692ZM3.01992 10.5C3.16176 10.6408 3.30276 10.7825 3.44292 10.925L3.44092 10.928C3.43994 10.9287 3.43894 10.9294 3.43792 10.93L3.43492 10.933L3.44092 10.928C3.55385 10.8427 3.67534 10.7709 3.80492 10.714C4.10292 10.583 4.60292 10.433 5.35292 10.433V9.233C4.43692 9.233 3.77092 9.417 3.31792 9.618C3.09292 9.718 2.92292 9.821 2.80392 9.905C2.74013 9.95007 2.67903 9.99882 2.62092 10.051L2.60592 10.065L2.59992 10.071L2.59792 10.073L2.59692 10.074C2.59692 10.075 2.59592 10.075 3.01992 10.5ZM5.35292 10.433C6.22192 10.433 6.95292 10.719 7.79692 11.057C8.61992 11.386 9.55492 11.767 10.6869 11.767V10.567C9.81792 10.567 9.08692 10.28 8.24292 9.943C7.41992 9.613 6.48492 9.233 5.35292 9.233V10.433ZM10.6869 11.766C11.7539 11.766 12.4969 11.588 12.9929 11.39C13.2399 11.291 13.4229 11.188 13.5509 11.103C13.6265 11.0525 13.6983 10.9967 13.7659 10.936L13.7719 10.929L13.7749 10.927L13.7759 10.925H13.7769L13.3529 10.5C13.2109 10.359 13.0699 10.217 12.9299 10.074L12.9319 10.073L12.9339 10.071L12.9369 10.067C12.9386 10.0656 12.9402 10.0643 12.9419 10.063L12.9389 10.065C12.9216 10.0792 12.9036 10.0926 12.8849 10.105C12.8249 10.145 12.7169 10.208 12.5469 10.275C12.2089 10.411 11.6189 10.566 10.6869 10.566V11.766ZM13.9529 10.5V2.5H12.7529V10.5H13.9529ZM13.3529 2.5L13.0849 1.963L13.0769 1.967L13.0399 1.985C12.8083 2.09074 12.5713 2.1842 12.3299 2.265C11.8599 2.42 11.2629 2.566 10.6869 2.566V3.766C11.4439 3.766 12.1799 3.579 12.7099 3.402C13.0131 3.30058 13.3102 3.18206 13.5999 3.047L13.6139 3.04L13.6189 3.038L13.6209 3.037L13.3529 2.5ZM10.6869 2.566C9.81792 2.566 9.08692 2.28 8.24292 1.943C7.41992 1.613 6.48492 1.233 5.35292 1.233V2.433C6.22192 2.433 6.95292 2.719 7.79692 3.057C8.61992 3.386 9.55492 3.766 10.6869 3.766V2.566ZM5.35292 1.233C4.28592 1.233 3.54292 1.411 3.04692 1.609C2.85151 1.68516 2.66452 1.78134 2.48892 1.896C2.40986 1.94922 2.33497 2.00839 2.26492 2.073L2.26392 2.074C2.26292 2.075 2.26192 2.075 2.68692 2.5C3.11092 2.924 3.11092 2.924 3.10992 2.925L3.10892 2.926L3.10592 2.928C3.10329 2.93071 3.10062 2.93337 3.09792 2.936C3.09692 2.938 3.09792 2.937 3.10092 2.934C3.11825 2.9198 3.13628 2.90645 3.15492 2.894C3.21492 2.855 3.32292 2.791 3.49292 2.724C3.83092 2.588 4.42092 2.433 5.35292 2.433V1.233ZM3.28692 15.166V2.5H2.08692V15.166H3.28692Z" fill="#1D1D1D"/>
</g>
<defs>
<clipPath id="clip0_7_1029">
<rect width="16" height="16" fill="white" transform="translate(0.0200195)"/>
</clipPath>
</defs>
</svg>
