<svg width="16" height="16" viewBox="0 0 16 16" fill="none" xmlns="http://www.w3.org/2000/svg">
<g clip-path="url(#clip0_7_971)">
<path d="M8.33309 9.136C8.82573 9.136 9.29819 8.9403 9.64654 8.59195C9.99489 8.2436 10.1906 7.77114 10.1906 7.2785C10.1906 6.78586 9.99489 6.3134 9.64654 5.96505C9.29819 5.6167 8.82573 5.421 8.33309 5.421C7.84045 5.421 7.36798 5.6167 7.01964 5.96505C6.67129 6.3134 6.47559 6.78586 6.47559 7.2785C6.47559 7.77114 6.67129 8.2436 7.01964 8.59195C7.36798 8.9403 7.84045 9.136 8.33309 9.136Z" stroke="#1D1D1D" stroke-width="1.2" stroke-linecap="round" stroke-linejoin="round"/>
<path d="M8.33288 14.707C10.8089 12.231 13.2849 10.014 13.2849 7.279C13.2849 5.96552 12.7631 4.70583 11.8343 3.77705C10.9056 2.84828 9.64587 2.3265 8.33238 2.3265C7.0189 2.3265 5.75921 2.84828 4.83044 3.77705C3.90166 4.70583 3.37988 5.96552 3.37988 7.279C3.37988 10.014 5.85688 12.231 8.33288 14.707Z" stroke="#1D1D1D" stroke-width="1.2" stroke-linecap="round" stroke-linejoin="round"/>
</g>
<defs>
<clipPath id="clip0_7_971">
<rect width="16" height="16" fill="white"/>
</clipPath>
</defs>
</svg>
