<svg width="16" height="16" viewBox="0 0 16 16" fill="none" xmlns="http://www.w3.org/2000/svg">
<g clip-path="url(#clip0_7_1181)">
<path d="M8.33309 9.1359C8.82573 9.1359 9.29819 8.9402 9.64654 8.59185C9.99489 8.2435 10.1906 7.77104 10.1906 7.2784C10.1906 6.78576 9.99489 6.3133 9.64654 5.96495C9.29819 5.6166 8.82573 5.4209 8.33309 5.4209C7.84045 5.4209 7.36798 5.6166 7.01964 5.96495C6.67129 6.3133 6.47559 6.78576 6.47559 7.2784C6.47559 7.77104 6.67129 8.2435 7.01964 8.59185C7.36798 8.9402 7.84045 9.1359 8.33309 9.1359Z" stroke="#1D1D1D" stroke-width="1.2" stroke-linecap="round" stroke-linejoin="round"/>
<path d="M8.33288 14.7069C10.8089 12.2309 13.2849 10.0139 13.2849 7.27892C13.2849 5.96543 12.7631 4.70574 11.8343 3.77697C10.9056 2.8482 9.64587 2.32642 8.33238 2.32642C7.0189 2.32642 5.75921 2.8482 4.83044 3.77697C3.90166 4.70574 3.37988 5.96543 3.37988 7.27892C3.37988 10.0139 5.85688 12.2309 8.33288 14.7069Z" stroke="#1D1D1D" stroke-width="1.2" stroke-linecap="round" stroke-linejoin="round"/>
</g>
<defs>
<clipPath id="clip0_7_1181">
<rect width="16" height="16" fill="white"/>
</clipPath>
</defs>
</svg>
