<svg width="16" height="16" viewBox="0 0 16 16" fill="none" xmlns="http://www.w3.org/2000/svg">
<g clip-path="url(#clip0_7_925)">
<path d="M8.33309 9.13599C8.82573 9.13599 9.29819 8.94029 9.64654 8.59194C9.99489 8.24359 10.1906 7.77113 10.1906 7.27849C10.1906 6.78585 9.99489 6.31339 9.64654 5.96504C9.29819 5.61669 8.82573 5.42099 8.33309 5.42099C7.84045 5.42099 7.36798 5.61669 7.01964 5.96504C6.67129 6.31339 6.47559 6.78585 6.47559 7.27849C6.47559 7.77113 6.67129 8.24359 7.01964 8.59194C7.36798 8.94029 7.84045 9.13599 8.33309 9.13599Z" stroke="#1D1D1D" stroke-width="1.2" stroke-linecap="round" stroke-linejoin="round"/>
<path d="M8.33288 14.707C10.8089 12.231 13.2849 10.014 13.2849 7.27901C13.2849 5.96552 12.7631 4.70584 11.8343 3.77706C10.9056 2.84829 9.64587 2.32651 8.33238 2.32651C7.0189 2.32651 5.75921 2.84829 4.83044 3.77706C3.90166 4.70584 3.37988 5.96552 3.37988 7.27901C3.37988 10.014 5.85688 12.231 8.33288 14.707Z" stroke="#1D1D1D" stroke-width="1.2" stroke-linecap="round" stroke-linejoin="round"/>
</g>
<defs>
<clipPath id="clip0_7_925">
<rect width="16" height="16" fill="white"/>
</clipPath>
</defs>
</svg>
