<svg width="17" height="16" viewBox="0 0 17 16" fill="none" xmlns="http://www.w3.org/2000/svg">
<g clip-path="url(#clip0_7_1101)">
<path d="M3.15597 10.075L2.73197 10.5L3.57997 11.348L4.00397 10.924L3.15597 10.075ZM13.913 10.5L14.338 10.924L14.513 10.748V10.5H13.913ZM13.913 2.50003H14.513V1.52903L13.645 1.96303L13.913 2.50003ZM3.24697 2.50003L2.82197 2.07503C2.7663 2.1309 2.72219 2.19719 2.69217 2.27011C2.66214 2.34304 2.64678 2.42117 2.64697 2.50003H3.24697ZM2.64697 15.166V15.766H3.84697V15.166H2.64697ZM3.57997 10.5C3.72182 10.6409 3.86282 10.7825 4.00297 10.925L4.00097 10.928C3.99999 10.9287 3.99899 10.9294 3.99797 10.93L3.99497 10.933L4.00097 10.928C4.11391 10.8428 4.2354 10.7709 4.36497 10.714C4.66297 10.583 5.16297 10.433 5.91297 10.433V9.23303C4.99697 9.23303 4.33097 9.41703 3.87797 9.61803C3.65297 9.71803 3.48297 9.82103 3.36397 9.90503C3.30019 9.9501 3.23909 9.99885 3.18097 10.051L3.16597 10.065L3.15997 10.071L3.15797 10.073L3.15697 10.074C3.15697 10.075 3.15597 10.075 3.57997 10.5ZM5.91297 10.433C6.78197 10.433 7.51297 10.719 8.35697 11.057C9.17997 11.386 10.115 11.767 11.247 11.767V10.567C10.378 10.567 9.64697 10.28 8.80297 9.94303C7.97997 9.61303 7.04497 9.23303 5.91297 9.23303V10.433ZM11.247 11.766C12.314 11.766 13.057 11.588 13.553 11.39C13.8 11.291 13.983 11.188 14.111 11.103C14.1865 11.0526 14.2584 10.9968 14.326 10.936L14.332 10.929L14.335 10.927L14.336 10.925H14.337L13.913 10.5C13.7709 10.3591 13.6299 10.2171 13.49 10.074L13.492 10.073L13.494 10.071L13.497 10.067C13.4986 10.0657 13.5003 10.0643 13.502 10.063L13.499 10.065C13.4817 10.0793 13.4636 10.0926 13.445 10.105C13.385 10.145 13.277 10.208 13.107 10.275C12.769 10.411 12.179 10.566 11.247 10.566V11.766ZM14.513 10.5V2.50003H13.313V10.5H14.513ZM13.913 2.50003L13.645 1.96303L13.637 1.96703L13.6 1.98503C13.3684 2.09077 13.1314 2.18423 12.89 2.26503C12.42 2.42003 11.823 2.56603 11.247 2.56603V3.76603C12.004 3.76603 12.74 3.57903 13.27 3.40203C13.5731 3.30061 13.8703 3.18209 14.16 3.04703L14.174 3.04003L14.179 3.03803L14.181 3.03703L13.913 2.50003ZM11.247 2.56603C10.378 2.56603 9.64697 2.28003 8.80297 1.94303C7.97997 1.61303 7.04497 1.23303 5.91297 1.23303V2.43303C6.78197 2.43303 7.51297 2.71903 8.35697 3.05703C9.17997 3.38603 10.115 3.76603 11.247 3.76603V2.56603ZM5.91297 1.23303C4.84597 1.23303 4.10297 1.41103 3.60697 1.60903C3.41157 1.6852 3.22458 1.78137 3.04897 1.89603C2.96992 1.94925 2.89503 2.00842 2.82497 2.07303L2.82397 2.07403C2.82297 2.07503 2.82197 2.07503 3.24697 2.50003C3.67097 2.92403 3.67097 2.92403 3.66997 2.92503L3.66897 2.92603L3.66597 2.92803C3.66335 2.93074 3.66068 2.9334 3.65797 2.93603C3.65697 2.93803 3.65797 2.93703 3.66097 2.93403C3.67831 2.91983 3.69633 2.90648 3.71497 2.89403C3.77497 2.85503 3.88297 2.79103 4.05297 2.72403C4.39097 2.58803 4.98097 2.43303 5.91297 2.43303V1.23303ZM3.84697 15.166V2.50003H2.64697V15.166H3.84697Z" fill="#1D1D1D"/>
</g>
<defs>
<clipPath id="clip0_7_1101">
<rect width="16" height="16" fill="white" transform="translate(0.580078)"/>
</clipPath>
</defs>
</svg>
