<svg width="16" height="16" viewBox="0 0 16 16" fill="none" xmlns="http://www.w3.org/2000/svg">
<g clip-path="url(#clip0_7_879)">
<path d="M8.33309 9.13602C8.82573 9.13602 9.29819 8.94032 9.64654 8.59197C9.99489 8.24362 10.1906 7.77116 10.1906 7.27852C10.1906 6.78588 9.99489 6.31342 9.64654 5.96507C9.29819 5.61672 8.82573 5.42102 8.33309 5.42102C7.84045 5.42102 7.36798 5.61672 7.01964 5.96507C6.67129 6.31342 6.47559 6.78588 6.47559 7.27852C6.47559 7.77116 6.67129 8.24362 7.01964 8.59197C7.36798 8.94032 7.84045 9.13602 8.33309 9.13602Z" stroke="#1D1D1D" stroke-width="1.2" stroke-linecap="round" stroke-linejoin="round"/>
<path d="M8.33288 14.707C10.8089 12.231 13.2849 10.014 13.2849 7.27898C13.2849 5.96549 12.7631 4.7058 11.8343 3.77703C10.9056 2.84826 9.64587 2.32648 8.33238 2.32648C7.0189 2.32648 5.75921 2.84826 4.83044 3.77703C3.90166 4.7058 3.37988 5.96549 3.37988 7.27898C3.37988 10.014 5.85688 12.231 8.33288 14.707Z" stroke="#1D1D1D" stroke-width="1.2" stroke-linecap="round" stroke-linejoin="round"/>
</g>
<defs>
<clipPath id="clip0_7_879">
<rect width="16" height="16" fill="white"/>
</clipPath>
</defs>
</svg>
