<svg width="17" height="16" viewBox="0 0 17 16" fill="none" xmlns="http://www.w3.org/2000/svg">
<g clip-path="url(#clip0_7_891)">
<path d="M3.13595 10.075L2.71195 10.5L3.55996 11.348L3.98396 10.924L3.13595 10.075ZM13.893 10.5L14.318 10.924L14.493 10.748V10.5H13.893ZM13.893 2.49997H14.493V1.52897L13.625 1.96297L13.893 2.49997ZM3.22696 2.49997L2.80196 2.07497C2.74629 2.13083 2.70217 2.19712 2.67215 2.27005C2.64212 2.34298 2.62676 2.42111 2.62695 2.49997H3.22696ZM2.62695 15.166V15.766H3.82695V15.166H2.62695ZM3.55996 10.5C3.7018 10.6408 3.8428 10.7825 3.98296 10.925L3.98096 10.928C3.97997 10.9287 3.97897 10.9293 3.97795 10.93L3.97495 10.933L3.98096 10.928C4.09389 10.8427 4.21538 10.7709 4.34496 10.714C4.64296 10.583 5.14296 10.433 5.89296 10.433V9.23297C4.97696 9.23297 4.31096 9.41697 3.85796 9.61797C3.63296 9.71797 3.46295 9.82097 3.34395 9.90497C3.28017 9.95004 3.21907 9.99879 3.16096 10.051L3.14595 10.065L3.13995 10.071L3.13796 10.073L3.13695 10.074C3.13695 10.075 3.13596 10.075 3.55996 10.5ZM5.89296 10.433C6.76196 10.433 7.49296 10.719 8.33696 11.057C9.15996 11.386 10.095 11.767 11.227 11.767V10.567C10.358 10.567 9.62695 10.28 8.78295 9.94297C7.95995 9.61297 7.02496 9.23297 5.89296 9.23297V10.433ZM11.227 11.766C12.294 11.766 13.037 11.588 13.533 11.39C13.78 11.291 13.963 11.188 14.091 11.103C14.1665 11.0525 14.2384 10.9967 14.306 10.936L14.312 10.929L14.315 10.927L14.316 10.925H14.317L13.893 10.5C13.7509 10.359 13.6099 10.217 13.47 10.074L13.472 10.073L13.474 10.071L13.477 10.067C13.4786 10.0656 13.4803 10.0643 13.482 10.063L13.479 10.065C13.4616 10.0792 13.4436 10.0926 13.425 10.105C13.365 10.145 13.257 10.208 13.087 10.275C12.749 10.411 12.159 10.566 11.227 10.566V11.766ZM14.493 10.5V2.49997H13.293V10.5H14.493ZM13.893 2.49997L13.625 1.96297L13.617 1.96697L13.58 1.98497C13.3484 2.09071 13.1114 2.18417 12.87 2.26497C12.4 2.41997 11.803 2.56597 11.227 2.56597V3.76597C11.984 3.76597 12.72 3.57897 13.25 3.40197C13.5531 3.30055 13.8502 3.18203 14.14 3.04697L14.154 3.03997L14.159 3.03797L14.161 3.03697L13.893 2.49997ZM11.227 2.56597C10.358 2.56597 9.62695 2.27997 8.78295 1.94297C7.95995 1.61297 7.02496 1.23297 5.89296 1.23297V2.43297C6.76196 2.43297 7.49296 2.71897 8.33696 3.05697C9.15996 3.38597 10.095 3.76597 11.227 3.76597V2.56597ZM5.89296 1.23297C4.82596 1.23297 4.08295 1.41097 3.58695 1.60897C3.39155 1.68513 3.20456 1.78131 3.02896 1.89597C2.9499 1.94919 2.87501 2.00836 2.80495 2.07297L2.80395 2.07397C2.80295 2.07497 2.80196 2.07497 3.22696 2.49997C3.65096 2.92397 3.65095 2.92397 3.64995 2.92497L3.64895 2.92597L3.64595 2.92797C3.64333 2.93068 3.64066 2.93334 3.63796 2.93597C3.63696 2.93797 3.63796 2.93697 3.64096 2.93397C3.65829 2.91977 3.67632 2.90642 3.69495 2.89397C3.75495 2.85497 3.86296 2.79097 4.03296 2.72397C4.37096 2.58797 4.96096 2.43297 5.89296 2.43297V1.23297ZM3.82695 15.166V2.49997H2.62695V15.166H3.82695Z" fill="#1D1D1D"/>
</g>
<defs>
<clipPath id="clip0_7_891">
<rect width="16" height="16" fill="white" transform="translate(0.560059)"/>
</clipPath>
</defs>
</svg>
