<svg width="17" height="16" viewBox="0 0 17 16" fill="none" xmlns="http://www.w3.org/2000/svg">
<g clip-path="url(#clip0_7_1259)">
<path d="M2.59592 10.0749L2.17192 10.4999L3.01992 11.3479L3.44392 10.9239L2.59592 10.0749ZM13.3529 10.4999L13.7779 10.9239L13.9529 10.7479V10.4999H13.3529ZM13.3529 2.49991H13.9529V1.52891L13.0849 1.96291L13.3529 2.49991ZM2.68692 2.49991L2.26192 2.07491C2.20625 2.13077 2.16214 2.19706 2.13211 2.26999C2.10208 2.34291 2.08672 2.42104 2.08692 2.49991H2.68692ZM2.08692 15.1659V15.7659H3.28692V15.1659H2.08692ZM3.01992 10.4999C3.16176 10.6407 3.30276 10.7824 3.44292 10.9249L3.44092 10.9279C3.43994 10.9286 3.43894 10.9293 3.43792 10.9299L3.43492 10.9329L3.44092 10.9279C3.55385 10.8426 3.67534 10.7708 3.80492 10.7139C4.10292 10.5829 4.60292 10.4329 5.35292 10.4329V9.23291C4.43692 9.23291 3.77092 9.41691 3.31792 9.61791C3.09292 9.71791 2.92292 9.82091 2.80392 9.90491C2.74013 9.94998 2.67903 9.99873 2.62092 10.0509L2.60592 10.0649L2.59992 10.0709L2.59792 10.0729L2.59692 10.0739C2.59692 10.0749 2.59592 10.0749 3.01992 10.4999ZM5.35292 10.4329C6.22192 10.4329 6.95292 10.7189 7.79692 11.0569C8.61992 11.3859 9.55492 11.7669 10.6869 11.7669V10.5669C9.81792 10.5669 9.08692 10.2799 8.24292 9.94291C7.41992 9.61291 6.48492 9.23291 5.35292 9.23291V10.4329ZM10.6869 11.7659C11.7539 11.7659 12.4969 11.5879 12.9929 11.3899C13.2399 11.2909 13.4229 11.1879 13.5509 11.1029C13.6265 11.0525 13.6983 10.9966 13.7659 10.9359L13.7719 10.9289L13.7749 10.9269L13.7759 10.9249H13.7769L13.3529 10.4999C13.2109 10.3589 13.0699 10.2169 12.9299 10.0739L12.9319 10.0729L12.9339 10.0709L12.9369 10.0669C12.9386 10.0656 12.9402 10.0642 12.9419 10.0629L12.9389 10.0649C12.9216 10.0791 12.9036 10.0925 12.8849 10.1049C12.8249 10.1449 12.7169 10.2079 12.5469 10.2749C12.2089 10.4109 11.6189 10.5659 10.6869 10.5659V11.7659ZM13.9529 10.4999V2.49991H12.7529V10.4999H13.9529ZM13.3529 2.49991L13.0849 1.96291L13.0769 1.96691L13.0399 1.98491C12.8083 2.09065 12.5713 2.18411 12.3299 2.26491C11.8599 2.41991 11.2629 2.56591 10.6869 2.56591V3.76591C11.4439 3.76591 12.1799 3.57891 12.7099 3.40191C13.0131 3.30049 13.3102 3.18197 13.5999 3.04691L13.6139 3.03991L13.6189 3.03791L13.6209 3.03691L13.3529 2.49991ZM10.6869 2.56591C9.81792 2.56591 9.08692 2.27991 8.24292 1.94291C7.41992 1.61291 6.48492 1.23291 5.35292 1.23291V2.43291C6.22192 2.43291 6.95292 2.71891 7.79692 3.05691C8.61992 3.38591 9.55492 3.76591 10.6869 3.76591V2.56591ZM5.35292 1.23291C4.28592 1.23291 3.54292 1.41091 3.04692 1.60891C2.85151 1.68507 2.66452 1.78125 2.48892 1.89591C2.40986 1.94913 2.33497 2.0083 2.26492 2.07291L2.26392 2.07391C2.26292 2.07491 2.26192 2.07491 2.68692 2.49991C3.11092 2.92391 3.11092 2.92391 3.10992 2.92491L3.10892 2.92591L3.10592 2.92791C3.10329 2.93062 3.10062 2.93328 3.09792 2.93591C3.09692 2.93791 3.09792 2.93691 3.10092 2.93391C3.11825 2.91971 3.13628 2.90636 3.15492 2.89391C3.21492 2.85491 3.32292 2.79091 3.49292 2.72391C3.83092 2.58791 4.42092 2.43291 5.35292 2.43291V1.23291ZM3.28692 15.1659V2.49991H2.08692V15.1659H3.28692Z" fill="#1D1D1D"/>
</g>
<defs>
<clipPath id="clip0_7_1259">
<rect width="16" height="16" fill="white" transform="translate(0.0200195)"/>
</clipPath>
</defs>
</svg>
