<svg width="17" height="16" viewBox="0 0 17 16" fill="none" xmlns="http://www.w3.org/2000/svg">
<g clip-path="url(#clip0_7_1193)">
<path d="M3.12595 10.0749L2.70195 10.4999L3.54995 11.3479L3.97395 10.9239L3.12595 10.0749ZM13.8829 10.4999L14.3079 10.9239L14.4829 10.7479V10.4999H13.8829ZM13.8829 2.49991H14.4829V1.52891L13.6149 1.96291L13.8829 2.49991ZM3.21695 2.49991L2.79195 2.07491C2.73628 2.13077 2.69216 2.19706 2.66214 2.26999C2.63211 2.34291 2.61675 2.42104 2.61695 2.49991H3.21695ZM2.61695 15.1659V15.7659H3.81695V15.1659H2.61695ZM3.54995 10.4999C3.69179 10.6407 3.83279 10.7824 3.97295 10.9249L3.97095 10.9279C3.96996 10.9286 3.96896 10.9293 3.96795 10.9299L3.96495 10.9329L3.97095 10.9279C4.08388 10.8426 4.20537 10.7708 4.33495 10.7139C4.63295 10.5829 5.13295 10.4329 5.88295 10.4329V9.23291C4.96695 9.23291 4.30095 9.41691 3.84795 9.61791C3.62295 9.71791 3.45295 9.82091 3.33395 9.90491C3.27016 9.94998 3.20906 9.99873 3.15095 10.0509L3.13595 10.0649L3.12995 10.0709L3.12795 10.0729L3.12695 10.0739C3.12695 10.0749 3.12595 10.0749 3.54995 10.4999ZM5.88295 10.4329C6.75195 10.4329 7.48295 10.7189 8.32695 11.0569C9.14995 11.3859 10.0849 11.7669 11.2169 11.7669V10.5669C10.3479 10.5669 9.61694 10.2799 8.77294 9.94291C7.94994 9.61291 7.01495 9.23291 5.88295 9.23291V10.4329ZM11.2169 11.7659C12.2839 11.7659 13.0269 11.5879 13.5229 11.3899C13.7699 11.2909 13.9529 11.1879 14.0809 11.1029C14.1565 11.0525 14.2284 10.9966 14.2959 10.9359L14.3019 10.9289L14.3049 10.9269L14.3059 10.9249H14.3069L13.8829 10.4999C13.7409 10.3589 13.5999 10.2169 13.4599 10.0739L13.4619 10.0729L13.4639 10.0709L13.4669 10.0669C13.4686 10.0656 13.4703 10.0642 13.4719 10.0629L13.4689 10.0649C13.4516 10.0791 13.4336 10.0925 13.4149 10.1049C13.3549 10.1449 13.2469 10.2079 13.0769 10.2749C12.7389 10.4109 12.1489 10.5659 11.2169 10.5659V11.7659ZM14.4829 10.4999V2.49991H13.2829V10.4999H14.4829ZM13.8829 2.49991L13.6149 1.96291L13.6069 1.96691L13.5699 1.98491C13.3384 2.09065 13.1014 2.18411 12.8599 2.26491C12.3899 2.41991 11.7929 2.56591 11.2169 2.56591V3.76591C11.9739 3.76591 12.7099 3.57891 13.2399 3.40191C13.5431 3.30049 13.8402 3.18197 14.1299 3.04691L14.1439 3.03991L14.1489 3.03791L14.1509 3.03691L13.8829 2.49991ZM11.2169 2.56591C10.3479 2.56591 9.61694 2.27991 8.77294 1.94291C7.94994 1.61291 7.01495 1.23291 5.88295 1.23291V2.43291C6.75195 2.43291 7.48295 2.71891 8.32695 3.05691C9.14995 3.38591 10.0849 3.76591 11.2169 3.76591V2.56591ZM5.88295 1.23291C4.81595 1.23291 4.07295 1.41091 3.57695 1.60891C3.38154 1.68507 3.19455 1.78125 3.01895 1.89591C2.93989 1.94913 2.865 2.0083 2.79495 2.07291L2.79395 2.07391C2.79295 2.07491 2.79195 2.07491 3.21695 2.49991C3.64095 2.92391 3.64095 2.92391 3.63995 2.92491L3.63895 2.92591L3.63595 2.92791C3.63332 2.93062 3.63065 2.93328 3.62795 2.93591C3.62695 2.93791 3.62795 2.93691 3.63095 2.93391C3.64828 2.91971 3.66631 2.90636 3.68495 2.89391C3.74495 2.85491 3.85295 2.79091 4.02295 2.72391C4.36095 2.58791 4.95095 2.43291 5.88295 2.43291V1.23291ZM3.81695 15.1659V2.49991H2.61695V15.1659H3.81695Z" fill="#1D1D1D"/>
</g>
<defs>
<clipPath id="clip0_7_1193">
<rect width="16" height="16" fill="white" transform="translate(0.550049)"/>
</clipPath>
</defs>
</svg>
