<svg width="390" height="48" viewBox="0 0 390 48" fill="none" xmlns="http://www.w3.org/2000/svg">
<rect width="390" height="48" fill="white"/>
<g clip-path="url(#clip0_7_1405)">
<path d="M16 20C16 17.9 16 16.85 16.4087 16.0475C16.7683 15.3419 17.3419 14.7683 18.0475 14.4087C18.85 14 19.9 14 22 14H30C32.1 14 33.15 14 33.9525 14.4087C34.6581 14.7683 35.2317 15.3419 35.5913 16.0475C36 16.85 36 17.9 36 20V28C36 30.1 36 31.15 35.5913 31.9525C35.2317 32.6581 34.6581 33.2317 33.9525 33.5913C33.15 34 32.1 34 30 34H22C19.9 34 18.85 34 18.0475 33.5913C17.3419 33.2317 16.7683 32.6581 16.4087 31.9525C16 31.15 16 30.1 16 28V20Z" fill="#FF3000"/>
<path d="M31.0644 30.5625C30.1716 30.5625 29.5566 30.0731 29.5566 28.5572V28.2313H30.5487V28.5575C30.5487 29.3634 30.7669 29.5841 31.0644 29.5841C31.3619 29.5841 31.5706 29.3634 31.5706 28.9891C31.5706 28.5188 31.5009 28.26 30.8066 27.7706C29.9931 27.2047 29.6159 26.6 29.6159 25.8231C29.6159 24.8347 30.1519 24.24 31.0644 24.24C31.6994 24.24 32.5425 24.4319 32.5425 26.0434V26.4178H31.5506V26.0438C31.5506 25.4106 31.3425 25.1997 31.0644 25.1997C30.7669 25.1997 30.6081 25.4106 30.6081 25.7847C30.6081 26.1684 30.6972 26.485 31.3919 27.0034C32.255 27.6459 32.5625 28.1544 32.5625 28.9891C32.5625 29.8234 32.1656 30.5625 31.0644 30.5625ZM27.6816 30.5625C26.7888 30.5625 26.1737 30.15 26.1737 28.5572V28.2313H27.1656V28.5575C27.1656 29.3634 27.3841 29.5841 27.6813 29.5841C27.9791 29.5841 28.1875 29.3634 28.1875 28.9891C28.1875 28.5188 28.1181 28.26 27.4237 27.7706C26.61 27.2047 26.2331 26.6 26.2331 25.8231C26.2331 24.8347 26.7688 24.24 27.6816 24.24C28.3163 24.24 29.1597 24.4319 29.1597 26.0434V26.4178H28.1678V26.0438C28.1678 25.4106 27.9594 25.1997 27.6816 25.1997C27.3841 25.1997 27.2253 25.4106 27.2253 25.7847C27.2253 26.1684 27.3144 26.485 28.0088 27.0034C28.8719 27.6462 29.1794 28.1547 29.1794 28.9894C29.1794 29.8237 28.7825 30.5625 27.6816 30.5625ZM31.0644 23.76C30.1716 23.76 29.5566 23.2706 29.5566 21.7547V21.4287H30.5487V21.755C30.5487 22.5609 30.7669 22.7816 31.0644 22.7816C31.3619 22.7816 31.5706 22.5609 31.5706 22.1866C31.5706 21.7166 31.5009 21.4575 30.8066 20.9681C29.9931 20.4022 29.6159 19.7978 29.6159 19.0206C29.6159 18.0325 30.1519 17.4375 31.0644 17.4375C31.6994 17.4375 32.5425 17.6294 32.5425 19.2412V19.6153H31.5506V19.2412C31.5506 18.6081 31.3425 18.3969 31.0644 18.3969C30.7669 18.3969 30.6081 18.6081 30.6081 18.9822C30.6081 19.3659 30.6972 19.6822 31.3919 20.2006C32.255 20.8434 32.5625 21.3519 32.5625 22.1866C32.5625 23.0209 32.1656 23.76 31.0644 23.76ZM27.6816 23.76C26.7888 23.76 26.1737 23.3475 26.1737 21.7547V21.4287H27.1656V21.755C27.1656 22.5609 27.3841 22.7816 27.6813 22.7816C27.9791 22.7816 28.1875 22.5609 28.1875 22.1866C28.1875 21.7166 28.1181 21.4575 27.4237 20.9681C26.61 20.4022 26.2331 19.7978 26.2331 19.0206C26.2331 18.0325 26.7688 17.4375 27.6816 17.4375C28.3163 17.4375 29.1597 17.6294 29.1597 19.2412V19.6153H28.1678V19.2412C28.1678 18.6081 27.9594 18.3969 27.6816 18.3969C27.3841 18.3969 27.2253 18.6081 27.2253 18.9822C27.2253 19.3659 27.3144 19.6822 28.0088 20.2006C28.8719 20.8434 29.1794 21.3519 29.1794 22.1866C29.1794 23.0209 28.7825 23.76 27.6816 23.76ZM20.4297 28.2313H20.6281C21.0647 28.2313 21.2828 28.02 21.2828 27.0416V26.485C21.2828 25.5066 21.0647 25.2953 20.6281 25.2953H20.4297V28.2313ZM20.4297 30.4666H19.4378V24.3356H20.6284C21.9178 24.3356 22.2753 25.0456 22.2753 26.3888V27.1372C22.2753 28.4803 21.9178 29.1903 20.6284 29.1903H20.4297V30.4666ZM20.6281 20.4694H20.4294V18.4928H20.6281C21.0744 18.4928 21.2825 18.6366 21.2825 19.3084V19.6537C21.2828 20.3256 21.0747 20.4694 20.6281 20.4694ZM22.4634 23.6644L21.6994 21.1122C22.0666 20.8147 22.275 20.3253 22.275 19.7209V19.2412C22.275 18.1187 21.7591 17.5334 20.6281 17.5334H19.4375V23.6644H20.4294V21.4287H20.5584C20.6084 21.4287 20.6775 21.4287 20.7866 21.4191L21.3819 23.6641H22.4631L22.4634 23.6644ZM23.5944 28.2313L24.1003 25.2953H24.1797L24.6856 28.2313H23.5944ZM25.0625 30.4666H26.0547L24.9531 24.3356H23.3263L22.215 30.4666H23.2072L23.4353 29.1906H24.8441L25.0625 30.4666ZM24.2391 23.7603C23.0187 23.7603 22.7906 22.8678 22.7906 21.7838V17.5337H23.8225V21.87C23.8225 22.6281 23.9612 22.8006 24.2391 22.8006C24.5169 22.8006 24.6556 22.6281 24.6556 21.87V17.5334H25.6875V21.7838C25.6875 22.8678 25.4594 23.7603 24.2391 23.7603Z" fill="white"/>
</g>
<rect x="44" y="14" width="2" height="20" rx="1" fill="#D9D9D9"/>
<g clip-path="url(#clip1_7_1405)">
<path d="M58.4842 14.4786C60.0153 14.4786 61.1499 14.8772 61.888 15.6751C62.6449 16.4737 63.0233 17.6438 63.0233 19.1847V21.6605C63.0233 23.2021 62.6449 24.3715 61.888 25.1701C61.1506 25.968 60.0153 26.3666 58.4842 26.3666H57.0442V33.5214H54V14.4786H58.4842ZM57.0442 17.1986V23.6466H58.4842C58.9642 23.6466 59.3329 23.5193 59.591 23.2654C59.849 23.0115 59.9784 22.5398 59.9784 21.8511V18.9941C59.9784 18.3054 59.849 17.8337 59.591 17.5798C59.3329 17.3259 58.9635 17.1986 58.4842 17.1986H57.0442ZM67.2292 29.1416C67.2292 29.8303 67.367 30.3207 67.6438 30.6108C67.9395 30.8821 68.327 31.0184 68.8063 31.0184C69.2863 31.0184 69.6647 30.8828 69.9416 30.6108C70.2365 30.3207 70.384 29.831 70.384 29.1416V18.8591C70.384 18.1704 70.2365 17.689 69.9416 17.417C69.6647 17.127 69.2863 16.9823 68.8063 16.9823C68.3263 16.9823 67.9395 17.127 67.6445 17.417C67.367 17.689 67.2285 18.1697 67.2285 18.8591V29.1409L67.2292 29.1416ZM64.1843 19.049C64.1843 17.5075 64.5809 16.329 65.3739 15.5123C66.1683 14.6776 67.3127 14.2609 68.807 14.2609C70.3019 14.2609 71.4456 14.6783 72.2393 15.5123C73.0323 16.3283 73.4289 17.5075 73.4289 19.049V28.951C73.4289 30.4925 73.0323 31.6807 72.2393 32.5148C71.4463 33.3308 70.3019 33.7391 68.807 33.7391C67.3127 33.7391 66.1683 33.3308 65.3753 32.5148C64.5823 31.6807 64.185 30.4925 64.185 28.951L64.1843 19.049ZM84.2365 26.4209V28.951C84.2365 30.4925 83.849 31.6807 83.0741 32.5148C82.3179 33.3308 81.1923 33.7391 79.6974 33.7391C78.2031 33.7391 77.0678 33.3308 76.2929 32.5148C75.5367 31.6807 75.1583 30.4925 75.1583 28.951V19.049C75.1583 17.5075 75.5367 16.329 76.2929 15.5123C77.0678 14.6776 78.2024 14.2609 79.6974 14.2609C81.1923 14.2609 82.3179 14.6783 83.0741 15.5123C83.849 16.3283 84.2365 17.5075 84.2365 19.049V20.8988H81.3579V18.8584C81.3579 18.1697 81.2104 17.6883 80.9155 17.4163C80.6386 17.1263 80.2602 16.9816 79.7802 16.9816C79.3002 16.9816 78.9134 17.1263 78.6184 17.4163C78.3409 17.6883 78.2024 18.169 78.2024 18.8584V29.1409C78.2024 29.8296 78.3416 30.311 78.6177 30.583C78.9134 30.8543 79.3009 30.9906 79.7802 30.9906C80.2602 30.9906 80.6386 30.855 80.9155 30.583C81.2104 30.311 81.3579 29.8303 81.3579 29.1409V26.4209H84.2365ZM94.9134 26.4209V28.951C94.9134 30.4925 94.5259 31.6807 93.751 32.5148C92.9941 33.3308 91.8685 33.7391 90.3743 33.7391C88.8793 33.7391 87.7447 33.3308 86.9697 32.5148C86.2129 31.6807 85.8351 30.4925 85.8351 28.951V19.049C85.8351 17.5075 86.2129 16.329 86.969 15.5123C87.7454 14.6776 88.88 14.2609 90.375 14.2609C91.8692 14.2609 92.9948 14.6783 93.7517 15.5123C94.5266 16.3283 94.9134 17.5075 94.9134 19.049V20.8988H92.0355V18.8584C92.0355 18.1697 91.888 17.6883 91.5923 17.4163C91.3155 17.1263 90.9377 16.9816 90.4577 16.9816C89.9777 16.9816 89.5903 17.1263 89.2953 17.4163C89.0184 17.6883 88.88 18.169 88.88 18.8584V29.1409C88.88 29.8296 89.0191 30.311 89.2953 30.583C89.5903 30.8543 89.9777 30.9906 90.4577 30.9906C90.9377 30.9906 91.3155 30.855 91.5923 30.583C91.888 30.311 92.0355 29.8303 92.0355 29.1409V26.4209H94.9134ZM99.888 33.5214H96.7603V14.4786H99.4734V26.5301L100.579 22.3402L103.071 14.4786H106.42V33.5214H103.68V20.1092L102.435 24.7889L99.888 33.5214ZM108.019 33.5214C108.166 33.159 108.259 32.8049 108.296 32.4605C108.333 32.0981 108.351 31.6807 108.351 31.209V28.2713C108.351 27.2737 108.489 26.4306 108.766 25.7412C109.062 25.0337 109.597 24.5259 110.371 24.2177C109.043 23.6007 108.378 22.313 108.378 20.3548V18.8584C108.378 17.3892 108.729 16.2915 109.43 15.5666C110.15 14.841 111.303 14.4786 112.89 14.4786H117.485V33.5214H114.44V25.7683H113.388C112.687 25.7683 112.179 25.9492 111.865 26.3123C111.552 26.6748 111.395 27.3002 111.395 28.1892V31.1819C111.395 31.5624 111.386 31.8803 111.367 32.1343C111.367 32.3882 111.349 32.5969 111.311 32.7603C111.293 32.9231 111.265 33.0595 111.229 33.168C111.192 33.2765 111.155 33.3948 111.118 33.5214H108.019ZM112.973 17.1986C112.438 17.1986 112.041 17.353 111.784 17.6612C111.543 17.9694 111.423 18.4682 111.423 19.1576V21.0344C111.423 21.7962 111.58 22.3221 111.894 22.6129C112.226 22.903 112.678 23.0476 113.25 23.0476H114.44V17.1986H112.973Z" fill="#FF3000"/>
</g>
<path d="M132.009 21.6L137.769 26.4L143.529 21.6" stroke="#1D1D1D" stroke-width="1.6" stroke-linecap="square"/>
<g clip-path="url(#clip2_7_1405)">
<path d="M300.493 17.7946L299.695 18.3827L300.493 19.2009L301.29 18.3827L300.493 17.7946ZM300.524 32.18L299.827 32.8582C300.018 33.0072 300.266 33.0896 300.523 33.0896C300.781 33.0896 301.029 33.0072 301.22 32.8582L300.524 32.1818V32.18ZM301.29 17.2073C298.894 14.75 294.752 14 291.618 16.3491L292.983 17.7273C295.084 16.1518 297.912 16.5536 299.695 18.3827L301.29 17.2073ZM291.618 16.3491C288.583 18.6246 288.144 22.45 290.541 25.1564L292.198 24.0473C290.483 22.1109 290.782 19.3764 292.982 17.7264L291.619 16.3491H291.618ZM310.443 25.1564C312.832 22.4609 312.461 18.6046 309.356 16.3409L308.013 17.7346C310.234 19.3536 310.512 22.1009 308.787 24.0473L310.443 25.1564ZM309.356 16.3409C306.188 14.0309 302.099 14.7409 299.696 17.2073L301.29 18.3827C303.064 16.5627 305.856 16.1618 308.013 17.7346L309.356 16.3409ZM290.542 25.1564C291.462 26.1946 293.396 27.8136 295.244 29.29C297.114 30.7846 298.992 32.21 299.827 32.8582L301.22 31.5027C300.359 30.8336 298.516 29.4346 296.659 27.9518C294.781 26.4509 292.987 24.9382 292.198 24.0473L290.542 25.1564ZM301.22 32.8582C302.061 32.2055 303.918 30.7836 305.775 29.2873C307.608 27.81 309.525 26.1927 310.443 25.1564L308.787 24.0473C307.996 24.9409 306.215 26.4536 304.355 27.9536C302.516 29.4355 300.682 30.8382 299.828 31.5027L301.22 32.8582Z" fill="#1D1D1D"/>
</g>
<g clip-path="url(#clip3_7_1405)">
<path d="M326.188 32C326.188 31.482 326.304 30.98 326.477 30.5C327.407 27.912 330.6 26 334.506 26C338.413 26 341.608 27.912 342.539 30.5C342.712 30.98 342.812 31.517 342.812 32.006M339.85 18.5C339.85 19.6935 339.287 20.8381 338.285 21.682C337.282 22.5259 335.923 23 334.506 23C333.089 23 331.729 22.5259 330.727 21.682C329.725 20.8381 329.162 19.6935 329.162 18.5C329.162 17.3065 329.725 16.1619 330.727 15.318C331.729 14.4741 333.089 14 334.506 14C335.923 14 337.282 14.4741 338.285 15.318C339.287 16.1619 339.85 17.3065 339.85 18.5Z" stroke="#1D1D1D" stroke-width="2" stroke-linecap="square" stroke-linejoin="round"/>
</g>
<g clip-path="url(#clip4_7_1405)">
<path d="M354.247 24.0001H373.294M354.247 18.2858H373.294M354.247 29.7143H373.294" stroke="#1D1D1D" stroke-width="1.90476" stroke-linejoin="round"/>
</g>
<defs>
<clipPath id="clip0_7_1405">
<rect width="20" height="20" fill="white" transform="translate(16 14)"/>
</clipPath>
<clipPath id="clip1_7_1405">
<rect width="64" height="20" fill="white" transform="translate(54 14)"/>
</clipPath>
<clipPath id="clip2_7_1405">
<rect width="23" height="20" fill="white" transform="translate(289 14)"/>
</clipPath>
<clipPath id="clip3_7_1405">
<rect width="19" height="21" fill="white" transform="translate(325 13)"/>
</clipPath>
<clipPath id="clip4_7_1405">
<rect width="20" height="14" fill="white" transform="translate(354 17)"/>
</clipPath>
</defs>
</svg>
