<svg width="17" height="16" viewBox="0 0 17 16" fill="none" xmlns="http://www.w3.org/2000/svg">
<path d="M15.29 8.13103L15.715 7.70703L14.865 6.85903L14.442 7.28303L15.29 8.13103ZM13.692 8.88103L13.268 9.30603L13.692 9.73003L14.117 9.30503L13.692 8.88103ZM12.942 7.28303L12.517 6.85903L11.669 7.70703L12.094 8.13103L12.942 7.28303ZM13.239 8.52203C13.2214 8.68023 13.2675 8.83891 13.367 8.96315C13.4665 9.08739 13.6112 9.16702 13.7695 9.18453C13.9277 9.20203 14.0863 9.15597 14.2106 9.05649C14.3348 8.957 14.4144 8.81223 14.432 8.65403L13.239 8.52203ZM13.16 11.699L13.538 11.233L12.605 10.478L12.227 10.945L13.16 11.699ZM9.18395 5.06503V4.46503H7.98395V5.06503H9.18395ZM8.58395 8.00103H7.98395V8.24803L8.15795 8.42303L8.58395 8.00103ZM9.57395 9.84903L9.99695 10.274L10.848 9.42903L10.425 9.00303L9.57395 9.84903ZM14.442 7.28303L13.268 8.45703L14.117 9.30503L15.29 8.13103L14.442 7.28303ZM14.116 8.45703L12.942 7.28303L12.093 8.13103L13.268 9.30603L14.116 8.45703ZM8.58395 12.684C7.34185 12.684 6.15061 12.1907 5.27222 11.3125C4.39382 10.4343 3.90022 9.24313 3.89995 8.00103H2.69995C2.70022 9.56139 3.32025 11.0577 4.42369 12.161C5.52712 13.2642 7.02359 13.884 8.58395 13.884V12.684ZM3.89995 8.00103C3.89995 6.75875 4.39344 5.56736 5.27186 4.68894C6.15028 3.81052 7.34168 3.31703 8.58395 3.31703V2.11703C7.02359 2.11703 5.52712 2.73681 4.42369 3.84006C3.32025 4.94331 2.70022 6.43967 2.69995 8.00003H3.89995V8.00103ZM8.58395 3.31703C9.82605 3.31703 11.0173 3.81038 11.8957 4.68859C12.7741 5.56679 13.2677 6.75793 13.268 8.00003H14.468C14.468 6.43949 13.848 4.94288 12.7446 3.83941C11.6411 2.73595 10.1445 2.11603 8.58395 2.11603V3.31703ZM13.268 8.00003C13.268 8.17603 13.258 8.35003 13.239 8.52003L14.432 8.65303C14.456 8.43803 14.468 8.22003 14.468 8.00003H13.268ZM12.228 10.944C11.7893 11.488 11.2342 11.9267 10.6036 12.2279C9.97292 12.529 9.28279 12.6849 8.58395 12.684V13.884C9.46155 13.8846 10.3281 13.6886 11.12 13.3103C11.9119 12.932 12.6089 12.3811 13.16 11.698L12.227 10.945L12.228 10.944ZM7.98395 5.06503V8.00003H9.18395V5.06503H7.98395ZM8.15795 8.42203L9.57395 9.85003L10.425 9.00303L9.00995 7.57803L8.15795 8.42303V8.42203Z" fill="#1D1D1D"/>
</svg>
