<svg width="17" height="16" viewBox="0 0 17 16" fill="none" xmlns="http://www.w3.org/2000/svg">
<path d="M15.29 8.131L15.715 7.707L14.865 6.859L14.442 7.283L15.29 8.131ZM13.692 8.881L13.268 9.306L13.692 9.73L14.117 9.305L13.692 8.881ZM12.942 7.283L12.517 6.859L11.669 7.707L12.094 8.131L12.942 7.283ZM13.239 8.522C13.2214 8.6802 13.2675 8.83887 13.367 8.96312C13.4665 9.08736 13.6112 9.16699 13.7695 9.1845C13.9277 9.202 14.0863 9.15594 14.2106 9.05646C14.3348 8.95697 14.4144 8.8122 14.432 8.654L13.239 8.522ZM13.16 11.699L13.538 11.233L12.605 10.478L12.227 10.945L13.16 11.699ZM9.18395 5.065V4.465H7.98395V5.065H9.18395ZM8.58395 8.001H7.98395V8.248L8.15795 8.423L8.58395 8.001ZM9.57395 9.849L9.99695 10.274L10.848 9.429L10.425 9.003L9.57395 9.849ZM14.442 7.283L13.268 8.457L14.117 9.305L15.29 8.131L14.442 7.283ZM14.116 8.457L12.942 7.283L12.093 8.131L13.268 9.306L14.116 8.457ZM8.58395 12.684C7.34185 12.684 6.15061 12.1906 5.27222 11.3124C4.39382 10.4342 3.90022 9.2431 3.89995 8.001H2.69995C2.70022 9.56136 3.32025 11.0577 4.42369 12.161C5.52712 13.2642 7.02359 13.884 8.58395 13.884V12.684ZM3.89995 8.001C3.89995 6.75872 4.39344 5.56733 5.27186 4.68891C6.15028 3.81049 7.34168 3.317 8.58395 3.317V2.117C7.02359 2.117 5.52712 2.73678 4.42369 3.84003C3.32025 4.94328 2.70022 6.43964 2.69995 8H3.89995V8.001ZM8.58395 3.317C9.82605 3.317 11.0173 3.81035 11.8957 4.68856C12.7741 5.56676 13.2677 6.7579 13.268 8H14.468C14.468 6.43946 13.848 4.94284 12.7446 3.83938C11.6411 2.73592 10.1445 2.116 8.58395 2.116V3.317ZM13.268 8C13.268 8.176 13.258 8.35 13.239 8.52L14.432 8.653C14.456 8.438 14.468 8.22 14.468 8H13.268ZM12.228 10.944C11.7893 11.488 11.2342 11.9267 10.6036 12.2278C9.97292 12.529 9.28279 12.6848 8.58395 12.684V13.884C9.46155 13.8846 10.3281 13.6886 11.12 13.3103C11.9119 12.932 12.6089 12.3811 13.16 11.698L12.227 10.945L12.228 10.944ZM7.98395 5.065V8H9.18395V5.065H7.98395ZM8.15795 8.422L9.57395 9.85L10.425 9.003L9.00995 7.578L8.15795 8.423V8.422Z" fill="#1D1D1D"/>
</svg>
