<svg width="17" height="16" viewBox="0 0 17 16" fill="none" xmlns="http://www.w3.org/2000/svg">
<path d="M15.29 8.13097L15.715 7.70697L14.865 6.85897L14.442 7.28297L15.29 8.13097ZM13.692 8.88097L13.268 9.30597L13.692 9.72997L14.117 9.30497L13.692 8.88097ZM12.942 7.28297L12.517 6.85897L11.669 7.70697L12.094 8.13097L12.942 7.28297ZM13.239 8.52197C13.2214 8.68017 13.2675 8.83884 13.367 8.96309C13.4665 9.08733 13.6112 9.16696 13.7695 9.18447C13.9277 9.20197 14.0863 9.15591 14.2106 9.05643C14.3348 8.95694 14.4144 8.81217 14.432 8.65397L13.239 8.52197ZM13.16 11.699L13.538 11.233L12.605 10.478L12.227 10.945L13.16 11.699ZM9.18395 5.06497V4.46497H7.98395V5.06497H9.18395ZM8.58395 8.00097H7.98395V8.24797L8.15795 8.42297L8.58395 8.00097ZM9.57395 9.84897L9.99695 10.274L10.848 9.42897L10.425 9.00297L9.57395 9.84897ZM14.442 7.28297L13.268 8.45697L14.117 9.30497L15.29 8.13097L14.442 7.28297ZM14.116 8.45697L12.942 7.28297L12.093 8.13097L13.268 9.30597L14.116 8.45697ZM8.58395 12.684C7.34185 12.684 6.15061 12.1906 5.27222 11.3124C4.39382 10.4342 3.90022 9.24307 3.89995 8.00097H2.69995C2.70022 9.56133 3.32025 11.0577 4.42369 12.1609C5.52712 13.2642 7.02359 13.884 8.58395 13.884V12.684ZM3.89995 8.00097C3.89995 6.75869 4.39344 5.5673 5.27186 4.68888C6.15028 3.81046 7.34168 3.31697 8.58395 3.31697V2.11697C7.02359 2.11697 5.52712 2.73675 4.42369 3.84C3.32025 4.94324 2.70022 6.43961 2.69995 7.99997H3.89995V8.00097ZM8.58395 3.31697C9.82605 3.31697 11.0173 3.81032 11.8957 4.68852C12.7741 5.56673 13.2677 6.75787 13.268 7.99997H14.468C14.468 6.43943 13.848 4.94281 12.7446 3.83935C11.6411 2.73589 10.1445 2.11597 8.58395 2.11597V3.31697ZM13.268 7.99997C13.268 8.17597 13.258 8.34997 13.239 8.51997L14.432 8.65297C14.456 8.43797 14.468 8.21997 14.468 7.99997H13.268ZM12.228 10.944C11.7893 11.488 11.2342 11.9267 10.6036 12.2278C9.97292 12.5289 9.28279 12.6848 8.58395 12.684V13.884C9.46155 13.8846 10.3281 13.6885 11.12 13.3102C11.9119 12.932 12.6089 12.381 13.16 11.698L12.227 10.945L12.228 10.944ZM7.98395 5.06497V7.99997H9.18395V5.06497H7.98395ZM8.15795 8.42197L9.57395 9.84997L10.425 9.00297L9.00995 7.57797L8.15795 8.42297V8.42197Z" fill="#1D1D1D"/>
</svg>
